%TF.GenerationSoftware,KiCad,Pcbnew,8.0.1*%
%TF.CreationDate,2024-04-13T21:14:01-05:00*%
%TF.ProjectId,Modulo_DEC,4d6f6475-6c6f-45f4-9445-432e6b696361,rev?*%
%TF.SameCoordinates,Original*%
%TF.FileFunction,Copper,L1,Top*%
%TF.FilePolarity,Positive*%
%FSLAX46Y46*%
G04 Gerber Fmt 4.6, Leading zero omitted, Abs format (unit mm)*
G04 Created by KiCad (PCBNEW 8.0.1) date 2024-04-13 21:14:01*
%MOMM*%
%LPD*%
G01*
G04 APERTURE LIST*
%TA.AperFunction,ComponentPad*%
%ADD10R,3.750000X1.800000*%
%TD*%
%TA.AperFunction,ComponentPad*%
%ADD11O,3.750000X1.800000*%
%TD*%
%TA.AperFunction,FiducialPad,Local*%
%ADD12O,3.750000X1.850000*%
%TD*%
%TA.AperFunction,ComponentPad*%
%ADD13C,3.250000*%
%TD*%
%TA.AperFunction,ComponentPad*%
%ADD14O,3.250000X3.250000*%
%TD*%
%TA.AperFunction,ComponentPad*%
%ADD15C,6.000000*%
%TD*%
%TA.AperFunction,ComponentPad*%
%ADD16R,2.500000X4.500000*%
%TD*%
%TA.AperFunction,ComponentPad*%
%ADD17O,2.500000X4.500000*%
%TD*%
%TA.AperFunction,ComponentPad*%
%ADD18R,2.500000X3.960000*%
%TD*%
%TA.AperFunction,ComponentPad*%
%ADD19C,3.500000*%
%TD*%
%TA.AperFunction,ComponentPad*%
%ADD20O,3.500000X3.500000*%
%TD*%
%TA.AperFunction,ComponentPad*%
%ADD21R,1.800000X3.500000*%
%TD*%
%TA.AperFunction,ComponentPad*%
%ADD22O,1.800000X3.500000*%
%TD*%
%TA.AperFunction,ComponentPad*%
%ADD23R,1.800000X3.750000*%
%TD*%
%TA.AperFunction,ComponentPad*%
%ADD24O,1.800000X3.750000*%
%TD*%
%TA.AperFunction,ViaPad*%
%ADD25C,2.000000*%
%TD*%
%TA.AperFunction,Conductor*%
%ADD26C,1.500000*%
%TD*%
%TA.AperFunction,Profile*%
%ADD27C,0.100000*%
%TD*%
G04 APERTURE END LIST*
D10*
%TO.P,U1,1,3V3*%
%TO.N,3V3*%
X128866000Y-35646000D03*
D11*
%TO.P,U1,2,GND*%
%TO.N,GND*%
X128866000Y-38186000D03*
%TO.P,U1,3,D15*%
%TO.N,unconnected-(U1-D15-Pad3)*%
X128866000Y-40726000D03*
%TO.P,U1,4,D2*%
%TO.N,unconnected-(U1-D2-Pad4)*%
X128866000Y-43266000D03*
%TO.P,U1,5,D4*%
%TO.N,unconnected-(U1-D4-Pad5)*%
X128866000Y-45806000D03*
%TO.P,U1,6,RX2*%
%TO.N,unconnected-(U1-RX2-Pad6)*%
X128866000Y-48346000D03*
%TO.P,U1,7,TX2*%
%TO.N,unconnected-(U1-TX2-Pad7)*%
X128866000Y-50886000D03*
%TO.P,U1,8,D5*%
%TO.N,D5*%
X128866000Y-53426000D03*
%TO.P,U1,9,D18*%
%TO.N,D18*%
X128866000Y-55966000D03*
D12*
%TO.P,U1,10,D19*%
%TO.N,D19*%
X128866000Y-58506000D03*
D11*
%TO.P,U1,11,D21*%
%TO.N,SDA*%
X128866000Y-61046000D03*
%TO.P,U1,12,RX0*%
%TO.N,unconnected-(U1-RX0-Pad12)*%
X128866000Y-63586000D03*
%TO.P,U1,13,TX0*%
%TO.N,unconnected-(U1-TX0-Pad13)*%
X128866000Y-66126000D03*
%TO.P,U1,14,D22*%
%TO.N,SCL*%
X128866000Y-68666000D03*
%TO.P,U1,15,D23*%
%TO.N,D23*%
X128866000Y-71206000D03*
%TO.P,U1,16,EN*%
%TO.N,unconnected-(U1-EN-Pad16)*%
X154266000Y-71206000D03*
%TO.P,U1,17,VP*%
%TO.N,unconnected-(U1-VP-Pad17)*%
X154266000Y-68666000D03*
%TO.P,U1,18,VN*%
%TO.N,unconnected-(U1-VN-Pad18)*%
X154266000Y-66126000D03*
%TO.P,U1,19,D34*%
%TO.N,D34*%
X154266000Y-63586000D03*
%TO.P,U1,20,D35*%
%TO.N,D35*%
X154266000Y-61046000D03*
%TO.P,U1,21,D32*%
%TO.N,unconnected-(U1-D32-Pad21)*%
X154266000Y-58506000D03*
%TO.P,U1,22,D33*%
%TO.N,D33*%
X154266000Y-55966000D03*
%TO.P,U1,23,D25*%
%TO.N,unconnected-(U1-D25-Pad23)*%
X154266000Y-53426000D03*
%TO.P,U1,24,D26*%
%TO.N,unconnected-(U1-D26-Pad24)*%
X154266000Y-50886000D03*
%TO.P,U1,25,D27*%
%TO.N,unconnected-(U1-D27-Pad25)*%
X154266000Y-48346000D03*
%TO.P,U1,26,D14*%
%TO.N,unconnected-(U1-D14-Pad26)*%
X154266000Y-45806000D03*
%TO.P,U1,27,D12*%
%TO.N,unconnected-(U1-D12-Pad27)*%
X154266000Y-43266000D03*
%TO.P,U1,28,D13*%
%TO.N,unconnected-(U1-D13-Pad28)*%
X154266000Y-40726000D03*
%TO.P,U1,29,GND*%
%TO.N,GND*%
X154266000Y-38186000D03*
%TO.P,U1,30,VIN*%
%TO.N,VCC*%
X154266000Y-35646000D03*
%TD*%
D13*
%TO.P,R1,1*%
%TO.N,GND*%
X152350000Y-84670000D03*
D14*
%TO.P,R1,2*%
%TO.N,D35*%
X147270000Y-84670000D03*
%TD*%
D15*
%TO.P,H3,1*%
%TO.N,N/C*%
X180000000Y-31000000D03*
%TD*%
D16*
%TO.P,J4,1,Pin_1*%
%TO.N,VCC*%
X173510000Y-94488000D03*
D17*
%TO.P,J4,2,Pin_2*%
%TO.N,D33*%
X168510000Y-94488000D03*
%TO.P,J4,3,Pin_3*%
%TO.N,GND*%
X163510000Y-94488000D03*
%TD*%
D18*
%TO.P,J2,1,Pin_1*%
%TO.N,3V3*%
X140975000Y-94478000D03*
D17*
%TO.P,J2,2,Pin_2*%
%TO.N,GND*%
X135975000Y-94478000D03*
%TO.P,J2,3,Pin_3*%
%TO.N,D34*%
X130975000Y-94478000D03*
%TD*%
D19*
%TO.P,R2,1*%
%TO.N,VCC*%
X173000000Y-83000000D03*
D20*
%TO.P,R2,2*%
%TO.N,D33*%
X162078000Y-83000000D03*
%TD*%
D16*
%TO.P,J5,1,Pin_1*%
%TO.N,VCC*%
X184883000Y-92202000D03*
D17*
%TO.P,J5,2,Pin_2*%
%TO.N,GND*%
X179883000Y-92202000D03*
%TD*%
D21*
%TO.P,RTC1,1,COM1*%
%TO.N,GND*%
X174660000Y-28702000D03*
D22*
%TO.P,RTC1,2,R1*%
%TO.N,VCC*%
X172120000Y-28702000D03*
%TO.P,RTC1,3,R2*%
%TO.N,SDA*%
X169580000Y-28702000D03*
%TO.P,RTC1,4,R3*%
%TO.N,SCL*%
X167040000Y-28702000D03*
%TO.P,RTC1,5,R4*%
%TO.N,unconnected-(RTC1-R4-Pad5)*%
X164500000Y-28702000D03*
%TO.P,RTC1,6,COM2*%
%TO.N,unconnected-(RTC1-COM2-Pad6)*%
X161960000Y-28702000D03*
%TD*%
D15*
%TO.P,H1,1*%
%TO.N,N/C*%
X112525000Y-84050000D03*
%TD*%
D16*
%TO.P,J1,1,Pin_1*%
%TO.N,3V3*%
X124690000Y-94488000D03*
D17*
%TO.P,J1,2,Pin_2*%
%TO.N,GND*%
X119690000Y-94488000D03*
%TO.P,J1,3,Pin_3*%
%TO.N,SCL*%
X114690000Y-94488000D03*
%TO.P,J1,4,Pin_4*%
%TO.N,SDA*%
X109690000Y-94488000D03*
%TD*%
D16*
%TO.P,J3,1,Pin_1*%
%TO.N,3V3*%
X157225000Y-94478000D03*
D17*
%TO.P,J3,2,Pin_2*%
%TO.N,GND*%
X152225000Y-94478000D03*
%TO.P,J3,3,Pin_3*%
%TO.N,D35*%
X147225000Y-94478000D03*
%TD*%
D23*
%TO.P,SDModule1,1,COM1*%
%TO.N,GND*%
X107700000Y-75230000D03*
D24*
%TO.P,SDModule1,2,R1*%
%TO.N,3V3*%
X110240000Y-75230000D03*
%TO.P,SDModule1,3,R2*%
%TO.N,D19*%
X112780000Y-75230000D03*
%TO.P,SDModule1,4,R3*%
%TO.N,D23*%
X115320000Y-75230000D03*
%TO.P,SDModule1,5,R4*%
%TO.N,D18*%
X117860000Y-75230000D03*
%TO.P,SDModule1,6,COM2*%
%TO.N,D5*%
X120400000Y-75230000D03*
%TD*%
D15*
%TO.P,H2,1*%
%TO.N,N/C*%
X180000000Y-82296000D03*
%TD*%
D25*
%TO.N,SDA*%
X137922000Y-61214000D03*
X123400000Y-83312000D03*
%TO.N,D23*%
X126238000Y-78232000D03*
X115316000Y-69088000D03*
%TO.N,D19*%
X123698000Y-61468000D03*
X112776000Y-64262000D03*
%TD*%
D26*
%TO.N,SDA*%
X123400000Y-83312000D02*
X129286000Y-83312000D01*
X129286000Y-83312000D02*
X137922000Y-74676000D01*
X137922000Y-74676000D02*
X137922000Y-61214000D01*
%TO.N,D23*%
X119888000Y-68834000D02*
X126238000Y-75184000D01*
X115570000Y-68834000D02*
X115824000Y-68834000D01*
X115570000Y-68834000D02*
X119888000Y-68834000D01*
X126238000Y-75184000D02*
X126238000Y-78232000D01*
X115316000Y-69088000D02*
X115570000Y-68834000D01*
%TO.N,D19*%
X123698000Y-61468000D02*
X120032000Y-61468000D01*
X117238000Y-64262000D02*
X112776000Y-64262000D01*
X120032000Y-61468000D02*
X117238000Y-64262000D01*
X112865000Y-75145000D02*
X112780000Y-75230000D01*
%TD*%
%TA.AperFunction,Conductor*%
%TO.N,D23*%
G36*
X117262033Y-68087434D02*
G01*
X117265477Y-68095700D01*
X117265477Y-69575066D01*
X117262050Y-69583339D01*
X117256859Y-69586353D01*
X115708619Y-70009166D01*
X115699736Y-70008039D01*
X115694732Y-70002366D01*
X115315897Y-69090160D01*
X115315002Y-69085661D01*
X115315988Y-68099664D01*
X115319423Y-68091395D01*
X115327663Y-68087976D01*
X117253753Y-68084024D01*
X117262033Y-68087434D01*
G37*
%TD.AperFunction*%
%TD*%
%TA.AperFunction,Conductor*%
%TO.N,D19*%
G36*
X123693496Y-60472017D02*
G01*
X123697923Y-60479801D01*
X123698013Y-60481240D01*
X123699000Y-61468000D01*
X123699000Y-61468024D01*
X123698013Y-62454759D01*
X123694578Y-62463028D01*
X123686301Y-62466447D01*
X123684862Y-62466357D01*
X121708249Y-62219281D01*
X121700465Y-62214854D01*
X121698000Y-62207671D01*
X121698000Y-60728328D01*
X121701427Y-60720055D01*
X121708246Y-60716719D01*
X123684862Y-60469642D01*
X123693496Y-60472017D01*
G37*
%TD.AperFunction*%
%TD*%
%TA.AperFunction,Conductor*%
%TO.N,SDA*%
G36*
X123413134Y-82313641D02*
G01*
X125389752Y-82560719D01*
X125397535Y-82565145D01*
X125400000Y-82572328D01*
X125400000Y-84051671D01*
X125396573Y-84059944D01*
X125389751Y-84063281D01*
X123413137Y-84310357D01*
X123404503Y-84307982D01*
X123400076Y-84300198D01*
X123399986Y-84298771D01*
X123399000Y-83312000D01*
X123399986Y-82325238D01*
X123403421Y-82316971D01*
X123411698Y-82313552D01*
X123413134Y-82313641D01*
G37*
%TD.AperFunction*%
%TD*%
%TA.AperFunction,Conductor*%
%TO.N,D23*%
G36*
X126985944Y-76235427D02*
G01*
X126989281Y-76242249D01*
X127236357Y-78218862D01*
X127233982Y-78227496D01*
X127226198Y-78231923D01*
X127224759Y-78232013D01*
X126238012Y-78232999D01*
X126237988Y-78232999D01*
X125251240Y-78232013D01*
X125242971Y-78228578D01*
X125239552Y-78220301D01*
X125239642Y-78218862D01*
X125486719Y-76242249D01*
X125491146Y-76234465D01*
X125498329Y-76232000D01*
X126977671Y-76232000D01*
X126985944Y-76235427D01*
G37*
%TD.AperFunction*%
%TD*%
%TA.AperFunction,Conductor*%
%TO.N,D19*%
G36*
X112789134Y-63263641D02*
G01*
X114765752Y-63510719D01*
X114773535Y-63515145D01*
X114776000Y-63522328D01*
X114776000Y-65001671D01*
X114772573Y-65009944D01*
X114765751Y-65013281D01*
X112789137Y-65260357D01*
X112780503Y-65257982D01*
X112776076Y-65250198D01*
X112775986Y-65248771D01*
X112775000Y-64262000D01*
X112775986Y-63275238D01*
X112779421Y-63266971D01*
X112787698Y-63263552D01*
X112789134Y-63263641D01*
G37*
%TD.AperFunction*%
%TD*%
%TA.AperFunction,Conductor*%
%TO.N,SDA*%
G36*
X138908760Y-61213986D02*
G01*
X138917028Y-61217421D01*
X138920447Y-61225698D01*
X138920357Y-61227137D01*
X138673281Y-63203751D01*
X138668854Y-63211535D01*
X138661671Y-63214000D01*
X137182329Y-63214000D01*
X137174056Y-63210573D01*
X137170719Y-63203751D01*
X136923642Y-61227137D01*
X136926017Y-61218503D01*
X136933801Y-61214076D01*
X136935227Y-61213986D01*
X137922000Y-61213000D01*
X138908760Y-61213986D01*
G37*
%TD.AperFunction*%
%TD*%
D27*
X102890000Y-23100000D02*
X188300000Y-23100000D01*
X188300000Y-102040000D01*
X102890000Y-102040000D01*
X102890000Y-23100000D01*
M02*
