%TF.GenerationSoftware,KiCad,Pcbnew,8.0.1*%
%TF.CreationDate,2024-04-13T21:14:01-05:00*%
%TF.ProjectId,Modulo_DEC,4d6f6475-6c6f-45f4-9445-432e6b696361,rev?*%
%TF.SameCoordinates,Original*%
%TF.FileFunction,Soldermask,Top*%
%TF.FilePolarity,Negative*%
%FSLAX46Y46*%
G04 Gerber Fmt 4.6, Leading zero omitted, Abs format (unit mm)*
G04 Created by KiCad (PCBNEW 8.0.1) date 2024-04-13 21:14:01*
%MOMM*%
%LPD*%
G01*
G04 APERTURE LIST*
G04 Aperture macros list*
%AMRoundRect*
0 Rectangle with rounded corners*
0 $1 Rounding radius*
0 $2 $3 $4 $5 $6 $7 $8 $9 X,Y pos of 4 corners*
0 Add a 4 corners polygon primitive as box body*
4,1,4,$2,$3,$4,$5,$6,$7,$8,$9,$2,$3,0*
0 Add four circle primitives for the rounded corners*
1,1,$1+$1,$2,$3*
1,1,$1+$1,$4,$5*
1,1,$1+$1,$6,$7*
1,1,$1+$1,$8,$9*
0 Add four rect primitives between the rounded corners*
20,1,$1+$1,$2,$3,$4,$5,0*
20,1,$1+$1,$4,$5,$6,$7,0*
20,1,$1+$1,$6,$7,$8,$9,0*
20,1,$1+$1,$8,$9,$2,$3,0*%
G04 Aperture macros list end*
%ADD10RoundRect,0.102000X-1.875000X-0.900000X1.875000X-0.900000X1.875000X0.900000X-1.875000X0.900000X0*%
%ADD11O,3.954000X2.004000*%
%ADD12O,3.954000X2.054000*%
%ADD13C,3.250000*%
%ADD14O,3.250000X3.250000*%
%ADD15C,6.000000*%
%ADD16R,2.500000X4.500000*%
%ADD17O,2.500000X4.500000*%
%ADD18R,2.500000X3.960000*%
%ADD19C,3.500000*%
%ADD20O,3.500000X3.500000*%
%ADD21R,1.800000X3.500000*%
%ADD22O,1.800000X3.500000*%
%ADD23R,1.800000X3.750000*%
%ADD24O,1.800000X3.750000*%
%ADD25C,2.000000*%
%TA.AperFunction,Profile*%
%ADD26C,0.100000*%
%TD*%
G04 APERTURE END LIST*
D10*
%TO.C,U1*%
X128866000Y-35646000D03*
D11*
X128866000Y-38186000D03*
X128866000Y-40726000D03*
X128866000Y-43266000D03*
X128866000Y-45806000D03*
X128866000Y-48346000D03*
X128866000Y-50886000D03*
X128866000Y-53426000D03*
X128866000Y-55966000D03*
D12*
X128866000Y-58506000D03*
D11*
X128866000Y-61046000D03*
X128866000Y-63586000D03*
X128866000Y-66126000D03*
X128866000Y-68666000D03*
X128866000Y-71206000D03*
X154266000Y-71206000D03*
X154266000Y-68666000D03*
X154266000Y-66126000D03*
X154266000Y-63586000D03*
X154266000Y-61046000D03*
X154266000Y-58506000D03*
X154266000Y-55966000D03*
X154266000Y-53426000D03*
X154266000Y-50886000D03*
X154266000Y-48346000D03*
X154266000Y-45806000D03*
X154266000Y-43266000D03*
X154266000Y-40726000D03*
X154266000Y-38186000D03*
X154266000Y-35646000D03*
%TD*%
D13*
%TO.C,R1*%
X152350000Y-84670000D03*
D14*
X147270000Y-84670000D03*
%TD*%
D15*
%TO.C,H3*%
X180000000Y-31000000D03*
%TD*%
D16*
%TO.C,J4*%
X173510000Y-94488000D03*
D17*
X168510000Y-94488000D03*
X163510000Y-94488000D03*
%TD*%
D18*
%TO.C,J2*%
X140975000Y-94478000D03*
D17*
X135975000Y-94478000D03*
X130975000Y-94478000D03*
%TD*%
D19*
%TO.C,R2*%
X173000000Y-83000000D03*
D20*
X162078000Y-83000000D03*
%TD*%
D16*
%TO.C,J5*%
X184883000Y-92202000D03*
D17*
X179883000Y-92202000D03*
%TD*%
D21*
%TO.C,RTC1*%
X174660000Y-28702000D03*
D22*
X172120000Y-28702000D03*
X169580000Y-28702000D03*
X167040000Y-28702000D03*
X164500000Y-28702000D03*
X161960000Y-28702000D03*
%TD*%
D15*
%TO.C,H1*%
X112525000Y-84050000D03*
%TD*%
D16*
%TO.C,J1*%
X124690000Y-94488000D03*
D17*
X119690000Y-94488000D03*
X114690000Y-94488000D03*
X109690000Y-94488000D03*
%TD*%
D16*
%TO.C,J3*%
X157225000Y-94478000D03*
D17*
X152225000Y-94478000D03*
X147225000Y-94478000D03*
%TD*%
D23*
%TO.C,SDModule1*%
X107700000Y-75230000D03*
D24*
X110240000Y-75230000D03*
X112780000Y-75230000D03*
X115320000Y-75230000D03*
X117860000Y-75230000D03*
X120400000Y-75230000D03*
%TD*%
D15*
%TO.C,H2*%
X180000000Y-82296000D03*
%TD*%
D25*
X137922000Y-61214000D03*
X123400000Y-83312000D03*
X126238000Y-78232000D03*
X115316000Y-69088000D03*
X123698000Y-61468000D03*
X112776000Y-64262000D03*
D26*
X102890000Y-23100000D02*
X188300000Y-23100000D01*
X188300000Y-102040000D01*
X102890000Y-102040000D01*
X102890000Y-23100000D01*
M02*
