M48
; DRILL file {KiCad 8.0.1} date 2024-04-13T21:14:09-0500
; FORMAT={-:-/ absolute / inch / decimal}
; #@! TF.CreationDate,2024-04-13T21:14:09-05:00
; #@! TF.GenerationSoftware,Kicad,Pcbnew,8.0.1
; #@! TF.FileFunction,Plated,1,2,PTH
FMAT,2
INCH
; #@! TA.AperFunction,Plated,PTH,ViaDrill
T1C0.0315
; #@! TA.AperFunction,Plated,PTH,ComponentDrill
T2C0.0315
; #@! TA.AperFunction,Plated,PTH,ComponentDrill
T3C0.0402
; #@! TA.AperFunction,Plated,PTH,ComponentDrill
T4C0.0520
; #@! TA.AperFunction,Plated,PTH,ComponentDrill
T5C0.0551
; #@! TA.AperFunction,Plated,PTH,ComponentDrill
T6C0.1181
%
G90
G05
T1
X4.44Y-2.53
X4.54Y-2.72
X4.8583Y-3.28
X4.87Y-2.42
X4.97Y-3.08
X5.43Y-2.41
T2
X4.2402Y-2.9618
X4.3402Y-2.9618
X4.4402Y-2.9618
X4.5402Y-2.9618
X4.6402Y-2.9618
X4.7402Y-2.9618
X6.3764Y-1.13
X6.4764Y-1.13
X6.5764Y-1.13
X6.6764Y-1.13
X6.7764Y-1.13
X6.8764Y-1.13
T3
X5.0735Y-1.4034
X5.0735Y-1.5034
X5.0735Y-1.6034
X5.0735Y-1.7034
X5.0735Y-1.8034
X5.0735Y-1.9034
X5.0735Y-2.0034
X5.0735Y-2.1034
X5.0735Y-2.2034
X5.0735Y-2.3034
X5.0735Y-2.4034
X5.0735Y-2.5034
X5.0735Y-2.6034
X5.0735Y-2.7034
X5.0735Y-2.8034
X6.0735Y-1.4034
X6.0735Y-1.5034
X6.0735Y-1.6034
X6.0735Y-1.7034
X6.0735Y-1.8034
X6.0735Y-1.9034
X6.0735Y-2.0034
X6.0735Y-2.1034
X6.0735Y-2.2034
X6.0735Y-2.3034
X6.0735Y-2.4034
X6.0735Y-2.5034
X6.0735Y-2.6034
X6.0735Y-2.7034
X6.0735Y-2.8034
T4
X4.3185Y-3.72
X4.5154Y-3.72
X4.7122Y-3.72
X4.9091Y-3.72
X5.1565Y-3.7196
X5.3533Y-3.7196
X5.5502Y-3.7196
X5.7963Y-3.7196
X5.9931Y-3.7196
X6.19Y-3.7196
X6.4374Y-3.72
X6.6343Y-3.72
X6.8311Y-3.72
X7.082Y-3.63
X7.2789Y-3.63
T5
X5.798Y-3.3335
X5.998Y-3.3335
X6.381Y-3.2677
X6.811Y-3.2677
T6
X4.4301Y-3.3091
X7.0866Y-1.2205
X7.0866Y-3.24
M30
