%TF.GenerationSoftware,KiCad,Pcbnew,8.0.5-1.fc40*%
%TF.CreationDate,2024-10-05T09:08:47-05:00*%
%TF.ProjectId,PCB_ESP32,5043425f-4553-4503-9332-2e6b69636164,rev?*%
%TF.SameCoordinates,Original*%
%TF.FileFunction,Copper,L1,Top*%
%TF.FilePolarity,Positive*%
%FSLAX46Y46*%
G04 Gerber Fmt 4.6, Leading zero omitted, Abs format (unit mm)*
G04 Created by KiCad (PCBNEW 8.0.5-1.fc40) date 2024-10-05 09:08:47*
%MOMM*%
%LPD*%
G01*
G04 APERTURE LIST*
G04 Aperture macros list*
%AMRoundRect*
0 Rectangle with rounded corners*
0 $1 Rounding radius*
0 $2 $3 $4 $5 $6 $7 $8 $9 X,Y pos of 4 corners*
0 Add a 4 corners polygon primitive as box body*
4,1,4,$2,$3,$4,$5,$6,$7,$8,$9,$2,$3,0*
0 Add four circle primitives for the rounded corners*
1,1,$1+$1,$2,$3*
1,1,$1+$1,$4,$5*
1,1,$1+$1,$6,$7*
1,1,$1+$1,$8,$9*
0 Add four rect primitives between the rounded corners*
20,1,$1+$1,$2,$3,$4,$5,0*
20,1,$1+$1,$4,$5,$6,$7,0*
20,1,$1+$1,$6,$7,$8,$9,0*
20,1,$1+$1,$8,$9,$2,$3,0*%
%AMOutline5P*
0 Free polygon, 5 corners , with rotation*
0 The origin of the aperture is its center*
0 number of corners: always 5*
0 $1 to $10 corner X, Y*
0 $11 Rotation angle, in degrees counterclockwise*
0 create outline with 5 corners*
4,1,5,$1,$2,$3,$4,$5,$6,$7,$8,$9,$10,$1,$2,$11*%
%AMOutline6P*
0 Free polygon, 6 corners , with rotation*
0 The origin of the aperture is its center*
0 number of corners: always 6*
0 $1 to $12 corner X, Y*
0 $13 Rotation angle, in degrees counterclockwise*
0 create outline with 6 corners*
4,1,6,$1,$2,$3,$4,$5,$6,$7,$8,$9,$10,$11,$12,$1,$2,$13*%
%AMOutline7P*
0 Free polygon, 7 corners , with rotation*
0 The origin of the aperture is its center*
0 number of corners: always 7*
0 $1 to $14 corner X, Y*
0 $15 Rotation angle, in degrees counterclockwise*
0 create outline with 7 corners*
4,1,7,$1,$2,$3,$4,$5,$6,$7,$8,$9,$10,$11,$12,$13,$14,$1,$2,$15*%
%AMOutline8P*
0 Free polygon, 8 corners , with rotation*
0 The origin of the aperture is its center*
0 number of corners: always 8*
0 $1 to $16 corner X, Y*
0 $17 Rotation angle, in degrees counterclockwise*
0 create outline with 8 corners*
4,1,8,$1,$2,$3,$4,$5,$6,$7,$8,$9,$10,$11,$12,$13,$14,$15,$16,$1,$2,$17*%
G04 Aperture macros list end*
%TA.AperFunction,SMDPad,CuDef*%
%ADD10RoundRect,0.200000X-0.275000X0.200000X-0.275000X-0.200000X0.275000X-0.200000X0.275000X0.200000X0*%
%TD*%
%TA.AperFunction,SMDPad,CuDef*%
%ADD11RoundRect,0.200000X0.275000X-0.200000X0.275000X0.200000X-0.275000X0.200000X-0.275000X-0.200000X0*%
%TD*%
%TA.AperFunction,SMDPad,CuDef*%
%ADD12RoundRect,0.200000X-0.200000X-0.275000X0.200000X-0.275000X0.200000X0.275000X-0.200000X0.275000X0*%
%TD*%
%TA.AperFunction,SMDPad,CuDef*%
%ADD13RoundRect,0.225000X0.250000X-0.225000X0.250000X0.225000X-0.250000X0.225000X-0.250000X-0.225000X0*%
%TD*%
%TA.AperFunction,SMDPad,CuDef*%
%ADD14RoundRect,0.150000X-0.825000X-0.150000X0.825000X-0.150000X0.825000X0.150000X-0.825000X0.150000X0*%
%TD*%
%TA.AperFunction,SMDPad,CuDef*%
%ADD15RoundRect,0.225000X-0.250000X0.225000X-0.250000X-0.225000X0.250000X-0.225000X0.250000X0.225000X0*%
%TD*%
%TA.AperFunction,SMDPad,CuDef*%
%ADD16RoundRect,0.150000X0.275000X-0.150000X0.275000X0.150000X-0.275000X0.150000X-0.275000X-0.150000X0*%
%TD*%
%TA.AperFunction,SMDPad,CuDef*%
%ADD17RoundRect,0.187500X0.362500X-0.187500X0.362500X0.187500X-0.362500X0.187500X-0.362500X-0.187500X0*%
%TD*%
%TA.AperFunction,SMDPad,CuDef*%
%ADD18RoundRect,0.200000X0.200000X0.275000X-0.200000X0.275000X-0.200000X-0.275000X0.200000X-0.275000X0*%
%TD*%
%TA.AperFunction,SMDPad,CuDef*%
%ADD19RoundRect,0.225000X0.225000X0.250000X-0.225000X0.250000X-0.225000X-0.250000X0.225000X-0.250000X0*%
%TD*%
%TA.AperFunction,SMDPad,CuDef*%
%ADD20R,0.700000X0.700000*%
%TD*%
%TA.AperFunction,SMDPad,CuDef*%
%ADD21R,0.700000X1.000000*%
%TD*%
%TA.AperFunction,SMDPad,CuDef*%
%ADD22R,1.050000X0.650000*%
%TD*%
%TA.AperFunction,SMDPad,CuDef*%
%ADD23RoundRect,0.175000X-0.225000X0.175000X-0.225000X-0.175000X0.225000X-0.175000X0.225000X0.175000X0*%
%TD*%
%TA.AperFunction,SMDPad,CuDef*%
%ADD24RoundRect,0.150000X-0.275000X0.150000X-0.275000X-0.150000X0.275000X-0.150000X0.275000X0.150000X0*%
%TD*%
%TA.AperFunction,SMDPad,CuDef*%
%ADD25R,1.555000X1.670000*%
%TD*%
%TA.AperFunction,SMDPad,CuDef*%
%ADD26RoundRect,0.218750X0.218750X0.256250X-0.218750X0.256250X-0.218750X-0.256250X0.218750X-0.256250X0*%
%TD*%
%TA.AperFunction,SMDPad,CuDef*%
%ADD27R,0.300000X1.150000*%
%TD*%
%TA.AperFunction,ComponentPad*%
%ADD28O,1.000000X2.100000*%
%TD*%
%TA.AperFunction,ComponentPad*%
%ADD29O,1.000000X1.600000*%
%TD*%
%TA.AperFunction,SMDPad,CuDef*%
%ADD30RoundRect,0.150000X-0.587500X-0.150000X0.587500X-0.150000X0.587500X0.150000X-0.587500X0.150000X0*%
%TD*%
%TA.AperFunction,SMDPad,CuDef*%
%ADD31R,0.800000X0.400000*%
%TD*%
%TA.AperFunction,SMDPad,CuDef*%
%ADD32R,0.400000X0.800000*%
%TD*%
%TA.AperFunction,SMDPad,CuDef*%
%ADD33Outline5P,-0.600000X0.204000X-0.204000X0.600000X0.600000X0.600000X0.600000X-0.600000X-0.600000X-0.600000X0.000000*%
%TD*%
%TA.AperFunction,SMDPad,CuDef*%
%ADD34R,1.200000X1.200000*%
%TD*%
%TA.AperFunction,SMDPad,CuDef*%
%ADD35R,0.800000X0.800000*%
%TD*%
%TA.AperFunction,ComponentPad*%
%ADD36R,1.700000X1.700000*%
%TD*%
%TA.AperFunction,ComponentPad*%
%ADD37O,1.700000X1.700000*%
%TD*%
%TA.AperFunction,ViaPad*%
%ADD38C,1.000000*%
%TD*%
%TA.AperFunction,Conductor*%
%ADD39C,0.300000*%
%TD*%
G04 APERTURE END LIST*
D10*
%TO.P,R10,1*%
%TO.N,IO1*%
X146740000Y-93200000D03*
%TO.P,R10,2*%
%TO.N,GND*%
X146740000Y-94850000D03*
%TD*%
D11*
%TO.P,R4,1*%
%TO.N,Net-(J2-CC1)*%
X159480000Y-133025000D03*
%TO.P,R4,2*%
%TO.N,GND*%
X159480000Y-131375000D03*
%TD*%
D12*
%TO.P,R2,1*%
%TO.N,VBUS*%
X149355000Y-118320000D03*
%TO.P,R2,2*%
%TO.N,GND*%
X151005000Y-118320000D03*
%TD*%
D13*
%TO.P,C9,1*%
%TO.N,RESET*%
X159800000Y-94805000D03*
%TO.P,C9,2*%
%TO.N,GND*%
X159800000Y-93255000D03*
%TD*%
D14*
%TO.P,U4,1,32KHZ*%
%TO.N,unconnected-(U4-32KHZ-Pad1)*%
X149705000Y-106615000D03*
%TO.P,U4,2,VCC*%
%TO.N,3.3V2*%
X149705000Y-107885000D03*
%TO.P,U4,3,~{INT}/SQW*%
%TO.N,unconnected-(U4-~{INT}{slash}SQW-Pad3)*%
X149705000Y-109155000D03*
%TO.P,U4,4,~{RST}*%
%TO.N,unconnected-(U4-~{RST}-Pad4)*%
X149705000Y-110425000D03*
%TO.P,U4,5,GND*%
%TO.N,GND*%
X154655000Y-110425000D03*
%TO.P,U4,6,VBAT*%
%TO.N,Net-(BT1-+)*%
X154655000Y-109155000D03*
%TO.P,U4,7,SDA*%
%TO.N,SDA*%
X154655000Y-107885000D03*
%TO.P,U4,8,SCL*%
%TO.N,SCL*%
X154655000Y-106615000D03*
%TD*%
D11*
%TO.P,R9,1*%
%TO.N,VBAT*%
X145190000Y-94850000D03*
%TO.P,R9,2*%
%TO.N,IO1*%
X145190000Y-93200000D03*
%TD*%
D15*
%TO.P,C7,1*%
%TO.N,VIN*%
X155780000Y-122045000D03*
%TO.P,C7,2*%
%TO.N,GND*%
X155780000Y-123595000D03*
%TD*%
D16*
%TO.P,J5,1,Pin_1*%
%TO.N,SCL*%
X162830000Y-124750000D03*
%TO.P,J5,2,Pin_2*%
%TO.N,SDA*%
X162830000Y-123550000D03*
%TO.P,J5,3,Pin_3*%
%TO.N,+3.3V*%
X162830000Y-122350000D03*
%TO.P,J5,4,Pin_4*%
%TO.N,GND*%
X162830000Y-121150000D03*
D17*
%TO.P,J5,MP,Pin_5*%
%TO.N,unconnected-(J5-Pin_5-PadMP)*%
X166455000Y-125925000D03*
%TO.N,unconnected-(J5-Pin_5-PadMP)_0*%
X166455000Y-119975000D03*
%TD*%
D15*
%TO.P,C6,1*%
%TO.N,3.3V2*%
X157780000Y-116345000D03*
%TO.P,C6,2*%
%TO.N,GND*%
X157780000Y-117895000D03*
%TD*%
D18*
%TO.P,R13,1*%
%TO.N,GND*%
X138077500Y-107840000D03*
%TO.P,R13,2*%
%TO.N,Net-(D3-A)*%
X136427500Y-107840000D03*
%TD*%
%TO.P,R6,1*%
%TO.N,3.3V2*%
X159830000Y-107940000D03*
%TO.P,R6,2*%
%TO.N,SDA*%
X158180000Y-107940000D03*
%TD*%
D11*
%TO.P,R7,1*%
%TO.N,VBUS*%
X149330000Y-94845000D03*
%TO.P,R7,2*%
%TO.N,IO2*%
X149330000Y-93195000D03*
%TD*%
D19*
%TO.P,C4,1*%
%TO.N,+3.3V*%
X146655000Y-115920000D03*
%TO.P,C4,2*%
%TO.N,GND*%
X145105000Y-115920000D03*
%TD*%
D20*
%TO.P,D1,1,VDD*%
%TO.N,3.3V2*%
X153385000Y-93610000D03*
%TO.P,D1,2,DOUT*%
%TO.N,unconnected-(D1-DOUT-Pad2)*%
X153385000Y-94710000D03*
%TO.P,D1,3,VSS*%
%TO.N,GND*%
X155215000Y-94710000D03*
%TO.P,D1,4,DIN*%
%TO.N,NEOPIXEL*%
X155215000Y-93610000D03*
%TD*%
D10*
%TO.P,R12,1*%
%TO.N,GND*%
X141450000Y-99675000D03*
%TO.P,R12,2*%
%TO.N,Net-(U5-PROG)*%
X141450000Y-101325000D03*
%TD*%
D18*
%TO.P,R5,1*%
%TO.N,3.3V2*%
X159830000Y-106240000D03*
%TO.P,R5,2*%
%TO.N,SCL*%
X158180000Y-106240000D03*
%TD*%
D12*
%TO.P,R1,1*%
%TO.N,VIN*%
X144955000Y-124320000D03*
%TO.P,R1,2*%
%TO.N,Net-(U2-EN)*%
X146605000Y-124320000D03*
%TD*%
D10*
%TO.P,R11,1*%
%TO.N,+3.3V*%
X158100000Y-93205000D03*
%TO.P,R11,2*%
%TO.N,RESET*%
X158100000Y-94855000D03*
%TD*%
D21*
%TO.P,U5,1,STAT*%
%TO.N,Net-(D3-K)*%
X141650000Y-105500000D03*
%TO.P,U5,2,VSS*%
%TO.N,GND*%
X142600000Y-105500000D03*
%TO.P,U5,3,VBAT*%
%TO.N,VBAT*%
X143550000Y-105500000D03*
%TO.P,U5,4,VDD*%
%TO.N,VBUS*%
X143550000Y-102900000D03*
%TO.P,U5,5,PROG*%
%TO.N,Net-(U5-PROG)*%
X141650000Y-102900000D03*
%TD*%
D19*
%TO.P,C3,1*%
%TO.N,+3.3V*%
X146655000Y-117720000D03*
%TO.P,C3,2*%
%TO.N,GND*%
X145105000Y-117720000D03*
%TD*%
%TO.P,C10,1*%
%TO.N,VBAT*%
X143845000Y-110960000D03*
%TO.P,C10,2*%
%TO.N,GND*%
X142295000Y-110960000D03*
%TD*%
D21*
%TO.P,U3,1,VIN*%
%TO.N,VIN*%
X153680000Y-117870000D03*
%TO.P,U3,2,GND*%
%TO.N,GND*%
X154680000Y-117870000D03*
%TO.P,U3,3,EN*%
%TO.N,VDD_SPI*%
X155680000Y-117870000D03*
%TO.P,U3,4,NC*%
%TO.N,unconnected-(U3-NC-Pad4)*%
X155680000Y-115120000D03*
%TO.P,U3,5,VOUT*%
%TO.N,3.3V2*%
X153680000Y-115120000D03*
%TD*%
D22*
%TO.P,SW3,1,1*%
%TO.N,GND*%
X154215000Y-101545000D03*
X158365000Y-101545000D03*
%TO.P,SW3,2,2*%
%TO.N,RESET*%
X154215000Y-103695000D03*
X158365000Y-103695000D03*
%TD*%
D15*
%TO.P,C1,1*%
%TO.N,VIN*%
X143180000Y-122745000D03*
%TO.P,C1,2*%
%TO.N,GND*%
X143180000Y-124295000D03*
%TD*%
D10*
%TO.P,R3,1*%
%TO.N,GND*%
X162080000Y-131375000D03*
%TO.P,R3,2*%
%TO.N,Net-(J2-CC2)*%
X162080000Y-133025000D03*
%TD*%
D19*
%TO.P,C5,1*%
%TO.N,+3.3V*%
X146680000Y-114120000D03*
%TO.P,C5,2*%
%TO.N,GND*%
X145130000Y-114120000D03*
%TD*%
D23*
%TO.P,J7,*%
%TO.N,*%
X138405000Y-114170000D03*
X138405000Y-117670000D03*
D24*
%TO.P,J7,1,Pin_1*%
%TO.N,VBAT*%
X142180000Y-115320000D03*
%TO.P,J7,2,Pin_2*%
%TO.N,GND*%
X142180000Y-116520000D03*
%TD*%
D25*
%TO.P,D2,1,K*%
%TO.N,VIN*%
X153580000Y-120520000D03*
%TO.P,D2,2,A*%
%TO.N,VBUS*%
X149680000Y-120520000D03*
%TD*%
D10*
%TO.P,R8,1*%
%TO.N,IO2*%
X150900000Y-93195000D03*
%TO.P,R8,2*%
%TO.N,GND*%
X150900000Y-94845000D03*
%TD*%
D16*
%TO.P,J6,1,Pin_1*%
%TO.N,SCL*%
X162830000Y-114820000D03*
%TO.P,J6,2,Pin_2*%
%TO.N,SDA*%
X162830000Y-113620000D03*
%TO.P,J6,3,Pin_3*%
%TO.N,3.3V2*%
X162830000Y-112420000D03*
%TO.P,J6,4,Pin_4*%
%TO.N,GND*%
X162830000Y-111220000D03*
D17*
%TO.P,J6,MP,Pin_5*%
%TO.N,unconnected-(J6-Pin_5-PadMP)_0*%
X166455000Y-115995000D03*
%TO.N,unconnected-(J6-Pin_5-PadMP)*%
X166455000Y-110045000D03*
%TD*%
D26*
%TO.P,D3,1,K*%
%TO.N,Net-(D3-K)*%
X138040000Y-109840000D03*
%TO.P,D3,2,A*%
%TO.N,Net-(D3-A)*%
X136465000Y-109840000D03*
%TD*%
D27*
%TO.P,J2,A1,GND*%
%TO.N,GND*%
X149430000Y-131830000D03*
%TO.P,J2,A4,VBUS*%
%TO.N,VBUS*%
X150230000Y-131830000D03*
%TO.P,J2,A5,CC1*%
%TO.N,Net-(J2-CC1)*%
X151530000Y-131830000D03*
%TO.P,J2,A6,D+*%
%TO.N,D+*%
X152530000Y-131830000D03*
%TO.P,J2,A7,D-*%
%TO.N,D-*%
X153030000Y-131830000D03*
%TO.P,J2,A8,SBU1*%
%TO.N,unconnected-(J2-SBU1-PadA8)*%
X154030000Y-131830000D03*
%TO.P,J2,A9,VBUS*%
%TO.N,VBUS*%
X155330000Y-131830000D03*
%TO.P,J2,A12,GND*%
%TO.N,GND*%
X156130000Y-131830000D03*
%TO.P,J2,B1,GND*%
X155830000Y-131830000D03*
%TO.P,J2,B4,VBUS*%
%TO.N,VBUS*%
X155030000Y-131830000D03*
%TO.P,J2,B5,CC2*%
%TO.N,Net-(J2-CC2)*%
X154530000Y-131830000D03*
%TO.P,J2,B6,D+*%
%TO.N,D+*%
X153530000Y-131830000D03*
%TO.P,J2,B7,D-*%
%TO.N,D-*%
X152030000Y-131830000D03*
%TO.P,J2,B8,SBU2*%
%TO.N,unconnected-(J2-SBU2-PadB8)*%
X151030000Y-131830000D03*
%TO.P,J2,B9,VBUS*%
%TO.N,VBUS*%
X150530000Y-131830000D03*
%TO.P,J2,B12,GND*%
%TO.N,GND*%
X149730000Y-131830000D03*
D28*
%TO.P,J2,S1,SHIELD*%
X148460000Y-132395000D03*
D29*
X148460000Y-136575000D03*
D28*
X157100000Y-132395000D03*
D29*
X157100000Y-136575000D03*
%TD*%
D30*
%TO.P,Q1,1,G*%
%TO.N,VBUS*%
X149742500Y-122870000D03*
%TO.P,Q1,2,S*%
%TO.N,VIN*%
X149742500Y-124770000D03*
%TO.P,Q1,3,D*%
%TO.N,VBAT_SW_OUT*%
X151617500Y-123820000D03*
%TD*%
D22*
%TO.P,SW2,1,1*%
%TO.N,GND*%
X146140000Y-101545000D03*
X150290000Y-101545000D03*
%TO.P,SW2,2,2*%
%TO.N,BOOT*%
X146140000Y-103695000D03*
X150290000Y-103695000D03*
%TD*%
D31*
%TO.P,U1,1,GND*%
%TO.N,GND*%
X145450000Y-76035000D03*
%TO.P,U1,2,GND*%
X145450000Y-76885000D03*
%TO.P,U1,3,3V3*%
%TO.N,+3.3V*%
X145450000Y-77735000D03*
%TO.P,U1,4,IO0*%
%TO.N,BOOT*%
X145450000Y-78585000D03*
%TO.P,U1,5,IO1*%
%TO.N,IO1*%
X145450000Y-79435000D03*
%TO.P,U1,6,IO2*%
%TO.N,IO2*%
X145450000Y-80285000D03*
%TO.P,U1,7,IO3*%
%TO.N,IO3*%
X145450000Y-81135000D03*
%TO.P,U1,8,IO4*%
%TO.N,IO4*%
X145450000Y-81985000D03*
%TO.P,U1,9,IO5*%
%TO.N,IO5*%
X145450000Y-82835000D03*
%TO.P,U1,10,IO6*%
%TO.N,IO6*%
X145450000Y-83685000D03*
%TO.P,U1,11,IO7*%
%TO.N,IO7*%
X145450000Y-84535000D03*
%TO.P,U1,12,IO8*%
%TO.N,IO8*%
X145450000Y-85385000D03*
%TO.P,U1,13,IO9*%
%TO.N,IO9*%
X145450000Y-86235000D03*
%TO.P,U1,14,IO10*%
%TO.N,IO10*%
X145450000Y-87085000D03*
%TO.P,U1,15,IO11*%
%TO.N,IO11*%
X145450000Y-87935000D03*
D32*
%TO.P,U1,16,IO12*%
%TO.N,IO12*%
X146500000Y-88985000D03*
%TO.P,U1,17,IO13*%
%TO.N,IO13*%
X147350000Y-88985000D03*
%TO.P,U1,18,IO14*%
%TO.N,IO14*%
X148200000Y-88985000D03*
%TO.P,U1,19,IO15*%
%TO.N,IO15*%
X149050000Y-88985000D03*
%TO.P,U1,20,IO16*%
%TO.N,IO16*%
X149900000Y-88985000D03*
%TO.P,U1,21,IO17*%
%TO.N,IO17*%
X150750000Y-88985000D03*
%TO.P,U1,22,IO18*%
%TO.N,IO18*%
X151600000Y-88985000D03*
%TO.P,U1,23,IO19*%
%TO.N,D-*%
X152450000Y-88985000D03*
%TO.P,U1,24,IO20*%
%TO.N,D+*%
X153300000Y-88985000D03*
%TO.P,U1,25,IO21*%
%TO.N,unconnected-(U1-IO21-Pad25)*%
X154150000Y-88985000D03*
%TO.P,U1,26,IO26*%
%TO.N,unconnected-(U1-IO26-Pad26)*%
X155000000Y-88985000D03*
%TO.P,U1,27,IO47*%
%TO.N,CS*%
X155850000Y-88985000D03*
%TO.P,U1,28,IO33*%
%TO.N,IO33*%
X156700000Y-88985000D03*
%TO.P,U1,29,IO34*%
%TO.N,VDD_SPI*%
X157550000Y-88985000D03*
%TO.P,U1,30,IO48*%
%TO.N,CLK*%
X158400000Y-88985000D03*
D31*
%TO.P,U1,31,IO35*%
%TO.N,IO35*%
X159450000Y-87935000D03*
%TO.P,U1,32,IO36*%
%TO.N,SCL*%
X159450000Y-87085000D03*
%TO.P,U1,33,IO37*%
%TO.N,SDA*%
X159450000Y-86235000D03*
%TO.P,U1,34,IO38*%
%TO.N,IO38*%
X159450000Y-85385000D03*
%TO.P,U1,35,IO39*%
%TO.N,IO39*%
X159450000Y-84535000D03*
%TO.P,U1,36,IO40*%
%TO.N,NEOPIXEL*%
X159450000Y-83685000D03*
%TO.P,U1,37,IO41*%
%TO.N,IO41*%
X159450000Y-82835000D03*
%TO.P,U1,38,IO42*%
%TO.N,IO42*%
X159450000Y-81985000D03*
%TO.P,U1,39,TXD0*%
%TO.N,TX*%
X159450000Y-81135000D03*
%TO.P,U1,40,RXD0*%
%TO.N,RX*%
X159450000Y-80285000D03*
%TO.P,U1,41,IO45*%
%TO.N,MISO*%
X159450000Y-79435000D03*
%TO.P,U1,42,GND*%
%TO.N,GND*%
X159450000Y-78585000D03*
%TO.P,U1,43,GND*%
X159450000Y-77735000D03*
%TO.P,U1,44,IO46*%
%TO.N,MOSI*%
X159450000Y-76885000D03*
%TO.P,U1,45,EN*%
%TO.N,RESET*%
X159450000Y-76035000D03*
D32*
%TO.P,U1,50,GND*%
%TO.N,GND*%
X155000000Y-74985000D03*
%TO.P,U1,51,GND*%
X154150000Y-74985000D03*
%TO.P,U1,52,GND*%
X153300000Y-74985000D03*
%TO.P,U1,53,GND*%
X152450000Y-74985000D03*
%TO.P,U1,54,GND*%
X151600000Y-74985000D03*
%TO.P,U1,55,GND*%
X150750000Y-74985000D03*
%TO.P,U1,56,GND*%
X149900000Y-74985000D03*
%TO.P,U1,57,GND*%
X149050000Y-74985000D03*
%TO.P,U1,58,GND*%
X148200000Y-74985000D03*
%TO.P,U1,59,GND*%
X147350000Y-74985000D03*
%TO.P,U1,60,GND*%
X146500000Y-74985000D03*
D33*
%TO.P,U1,61,GND*%
X150800000Y-80335000D03*
D34*
X150800000Y-81985000D03*
X150800000Y-83635000D03*
X152450000Y-80335000D03*
X152450000Y-81985000D03*
X152450000Y-83635000D03*
X154100000Y-80335000D03*
X154100000Y-81985000D03*
X154100000Y-83635000D03*
D35*
%TO.P,U1,62,GND*%
X145450000Y-74985000D03*
%TO.P,U1,63,GND*%
X145450000Y-88985000D03*
D32*
X155850000Y-74985000D03*
X156700000Y-74985000D03*
X157550000Y-74985000D03*
X158400000Y-74985000D03*
D35*
X159450000Y-74985000D03*
X159450000Y-88985000D03*
%TD*%
D21*
%TO.P,U2,1,VIN*%
%TO.N,VIN*%
X144980000Y-122570000D03*
%TO.P,U2,2,GND*%
%TO.N,GND*%
X145980000Y-122570000D03*
%TO.P,U2,3,EN*%
%TO.N,Net-(U2-EN)*%
X146980000Y-122570000D03*
%TO.P,U2,4,NC*%
%TO.N,unconnected-(U2-NC-Pad4)*%
X146980000Y-119820000D03*
%TO.P,U2,5,VOUT*%
%TO.N,+3.3V*%
X144980000Y-119820000D03*
%TD*%
D36*
%TO.P,J3,1,Pin_1*%
%TO.N,RX*%
X168030000Y-76105000D03*
D37*
%TO.P,J3,2,Pin_2*%
%TO.N,TX*%
X168030000Y-78645000D03*
%TO.P,J3,3,Pin_3*%
%TO.N,RESET*%
X168030000Y-81185000D03*
%TO.P,J3,4,Pin_4*%
%TO.N,IO41*%
X168030000Y-83725000D03*
%TO.P,J3,5,Pin_5*%
%TO.N,IO39*%
X168030000Y-86265000D03*
%TO.P,J3,6,Pin_6*%
%TO.N,SDA*%
X168030000Y-88805000D03*
%TO.P,J3,7,Pin_7*%
%TO.N,SCL*%
X168030000Y-91345000D03*
%TO.P,J3,8,Pin_8*%
%TO.N,VBUS*%
X168030000Y-93885000D03*
%TO.P,J3,9,Pin_9*%
%TO.N,GND*%
X168030000Y-96425000D03*
%TO.P,J3,10,Pin_10*%
%TO.N,3.3V2*%
X168030000Y-98965000D03*
%TD*%
D36*
%TO.P,J4,1,Pin_1*%
%TO.N,GND*%
X137290000Y-99215000D03*
D37*
%TO.P,J4,2,Pin_2*%
%TO.N,+3.3V*%
X137290000Y-96675000D03*
%TO.P,J4,3,Pin_3*%
%TO.N,VBAT*%
X137290000Y-94135000D03*
%TO.P,J4,4,Pin_4*%
%TO.N,IO9*%
X137290000Y-91595000D03*
%TO.P,J4,5,Pin_5*%
%TO.N,IO8*%
X137290000Y-89055000D03*
%TO.P,J4,6,Pin_6*%
%TO.N,IO7*%
X137290000Y-86515000D03*
%TO.P,J4,7,Pin_7*%
%TO.N,IO6*%
X137290000Y-83975000D03*
%TO.P,J4,8,Pin_8*%
%TO.N,IO5*%
X137290000Y-81435000D03*
%TO.P,J4,9,Pin_9*%
%TO.N,IO4*%
X137290000Y-78895000D03*
%TO.P,J4,10,Pin_10*%
%TO.N,IO3*%
X137290000Y-76355000D03*
%TD*%
D38*
%TO.N,Net-(BT1-+)*%
X156645000Y-109445000D03*
X157080000Y-111920000D03*
X152925000Y-111875000D03*
%TO.N,GND*%
X148000000Y-127690000D03*
X147120000Y-97490000D03*
X150900000Y-96610000D03*
X160170000Y-97960000D03*
X148930000Y-113360000D03*
X144930000Y-112470000D03*
X162410000Y-108340000D03*
X143880000Y-118945000D03*
X160680000Y-129380000D03*
X142810000Y-112440000D03*
X156680000Y-92650000D03*
X149300000Y-91900000D03*
X144585000Y-125835000D03*
X154460000Y-96210000D03*
X141060000Y-98350000D03*
X158530000Y-99880000D03*
%TO.N,+3.3V*%
X156510000Y-98280000D03*
X144120000Y-96130000D03*
X140940000Y-77700000D03*
X142200000Y-96140000D03*
X147110000Y-104990000D03*
X153350000Y-113570000D03*
X148330000Y-115920000D03*
%TO.N,3.3V2*%
X160320000Y-118040000D03*
X161220000Y-93930000D03*
X161360000Y-100780000D03*
X155450000Y-111710000D03*
X157040000Y-114530000D03*
X164580000Y-113320000D03*
%TO.N,RESET*%
X162100000Y-76700000D03*
X164860000Y-81220000D03*
X168270000Y-102590000D03*
X166830000Y-101180000D03*
%TO.N,VBAT*%
X137550000Y-121030000D03*
X140920000Y-95170000D03*
X143120000Y-100210000D03*
%TO.N,NEOPIXEL*%
X161460000Y-84080000D03*
X156400000Y-93880000D03*
%TO.N,VBUS*%
X149330000Y-96430000D03*
X151850000Y-97840000D03*
X158660000Y-97310000D03*
X141620000Y-121040000D03*
X146120000Y-99480000D03*
X144760000Y-108870000D03*
X147680000Y-111770000D03*
X148180000Y-121320000D03*
X143550000Y-101530000D03*
%TO.N,Net-(D3-K)*%
X141290000Y-109620000D03*
X141630000Y-107380000D03*
%TO.N,CLK*%
X164460000Y-91480000D03*
%TO.N,MOSI*%
X161340000Y-77980000D03*
%TO.N,CS*%
X154820000Y-90520000D03*
X162600000Y-91640000D03*
X158400000Y-90830000D03*
%TO.N,MISO*%
X162890000Y-79310000D03*
%TO.N,D+*%
X143110000Y-91920000D03*
X152460000Y-129480000D03*
X140090000Y-91900000D03*
X139690000Y-125600000D03*
X152530000Y-91330000D03*
X146350000Y-129480000D03*
%TO.N,D-*%
X146360000Y-127810000D03*
X143630000Y-93190000D03*
X150710000Y-91300000D03*
X140630000Y-119350000D03*
X150020000Y-128360000D03*
X140280000Y-93210000D03*
%TO.N,SCL*%
X161130000Y-102410000D03*
X156670000Y-106615000D03*
X158580000Y-112020000D03*
X164580000Y-124020000D03*
X163580000Y-117610000D03*
X161910000Y-95370000D03*
%TO.N,SDA*%
X159980000Y-111890000D03*
X162620000Y-103870000D03*
X159580000Y-109340000D03*
X162610000Y-86070000D03*
%TO.N,VBAT_SW_OUT*%
X153120000Y-124330000D03*
%TO.N,IO2*%
X141770000Y-81170000D03*
X143040000Y-88527002D03*
%TO.N,IO1*%
X142170000Y-79630000D03*
X143060000Y-90250000D03*
%TO.N,VDD_SPI*%
X152840000Y-99760000D03*
X154670000Y-114130000D03*
%TO.N,BOOT*%
X144860000Y-98810000D03*
X140860000Y-79290000D03*
%TD*%
D39*
%TO.N,Net-(BT1-+)*%
X157080000Y-111920000D02*
X156350000Y-112650000D01*
X156355000Y-109155000D02*
X154655000Y-109155000D01*
X156350000Y-112650000D02*
X153700000Y-112650000D01*
X156645000Y-109445000D02*
X156355000Y-109155000D01*
X153700000Y-112650000D02*
X152925000Y-111875000D01*
%TO.N,GND*%
X143200000Y-98350000D02*
X141060000Y-98350000D01*
X143880000Y-119820000D02*
X143880000Y-120620000D01*
X161950000Y-110430000D02*
X154660000Y-110430000D01*
X138165000Y-98350000D02*
X137290000Y-99225000D01*
X162080000Y-131375000D02*
X162955000Y-131375000D01*
X148800000Y-91400000D02*
X147400000Y-91400000D01*
X158080000Y-125920000D02*
X158080000Y-121970000D01*
X137290000Y-99225000D02*
X137290000Y-100620000D01*
X151780000Y-116520000D02*
X152805000Y-116520000D01*
X157780000Y-119220000D02*
X156555000Y-120445000D01*
X156555000Y-120445000D02*
X154680000Y-118570000D01*
X145105000Y-114145000D02*
X145130000Y-114120000D01*
X160480000Y-133500000D02*
X161380000Y-134400000D01*
X148000000Y-129870000D02*
X149730000Y-131600000D01*
X142580000Y-108920000D02*
X141980000Y-108320000D01*
X142810000Y-112440000D02*
X142305000Y-111935000D01*
X163480000Y-131900000D02*
X162955000Y-131375000D01*
X143880000Y-120460000D02*
X143880000Y-119820000D01*
X145180000Y-114070000D02*
X145130000Y-114120000D01*
X142080000Y-122260000D02*
X143880000Y-120460000D01*
X158080000Y-121970000D02*
X157255000Y-121145000D01*
X143880000Y-118945000D02*
X143880000Y-119820000D01*
X162830000Y-111220000D02*
X162040000Y-110430000D01*
X154680000Y-118570000D02*
X154680000Y-117870000D01*
X156380000Y-130800000D02*
X156130000Y-131050000D01*
X151015000Y-100820000D02*
X150290000Y-101545000D01*
X146990000Y-95050000D02*
X146790000Y-94850000D01*
X162780000Y-134400000D02*
X163480000Y-133700000D01*
X162410000Y-109970000D02*
X161950000Y-110430000D01*
X162410000Y-108340000D02*
X162410000Y-109970000D01*
X141980000Y-108320000D02*
X138890000Y-108320000D01*
X138370000Y-107840000D02*
X138077500Y-107840000D01*
X162080000Y-130780000D02*
X162080000Y-131375000D01*
X144080000Y-120820000D02*
X144930000Y-120820000D01*
X159955000Y-131375000D02*
X160480000Y-131900000D01*
X148930000Y-113360000D02*
X148930000Y-113670000D01*
X144930000Y-112470000D02*
X145180000Y-112720000D01*
X160480000Y-131900000D02*
X160480000Y-133500000D01*
X144585000Y-125835000D02*
X144585000Y-125700000D01*
X158900000Y-126715000D02*
X158080000Y-125895000D01*
X157780000Y-117895000D02*
X157780000Y-119220000D01*
X149730000Y-131600000D02*
X149730000Y-131830000D01*
X158080000Y-125895000D02*
X155780000Y-123595000D01*
X154660000Y-110430000D02*
X154655000Y-110425000D01*
X142305000Y-110595000D02*
X142580000Y-110320000D01*
X157260000Y-121150000D02*
X157255000Y-121145000D01*
X159480000Y-131375000D02*
X158655000Y-131375000D01*
X154460000Y-96210000D02*
X155240000Y-95430000D01*
X137290000Y-100620000D02*
X138077500Y-101407500D01*
X158080000Y-125920000D02*
X158080000Y-125895000D01*
X142600000Y-105500000D02*
X142600000Y-108900000D01*
X142580000Y-110320000D02*
X142580000Y-108920000D01*
X143180000Y-124295000D02*
X142755000Y-124295000D01*
X154215000Y-101545000D02*
X153490000Y-100820000D01*
X167355000Y-97100000D02*
X168030000Y-96425000D01*
X142600000Y-108900000D02*
X142580000Y-108920000D01*
X153490000Y-100820000D02*
X151015000Y-100820000D01*
X143880000Y-120620000D02*
X144080000Y-120820000D01*
X138077500Y-107840000D02*
X138077500Y-107255000D01*
X158900000Y-127600000D02*
X158900000Y-126715000D01*
X146740000Y-97110000D02*
X146740000Y-94850000D01*
X147400000Y-91400000D02*
X145450000Y-89450000D01*
X161380000Y-134400000D02*
X162780000Y-134400000D01*
X138077500Y-101407500D02*
X138077500Y-107840000D01*
X141060000Y-98350000D02*
X141060000Y-99285000D01*
X155215000Y-94710000D02*
X155215000Y-95405000D01*
X163480000Y-133700000D02*
X163480000Y-131900000D01*
X148930000Y-113670000D02*
X151780000Y-116520000D01*
X146790000Y-94850000D02*
X146740000Y-94850000D01*
X159480000Y-131375000D02*
X159955000Y-131375000D01*
X145980000Y-121870000D02*
X145980000Y-122570000D01*
X150290000Y-101545000D02*
X146140000Y-101545000D01*
X161030000Y-97100000D02*
X167355000Y-97100000D01*
X147120000Y-97490000D02*
X146740000Y-97110000D01*
X147120000Y-97490000D02*
X144060000Y-97490000D01*
X150900000Y-94845000D02*
X150900000Y-96610000D01*
X156970000Y-92360000D02*
X158905000Y-92360000D01*
X158905000Y-92360000D02*
X159800000Y-93255000D01*
X155240000Y-95430000D02*
X155240000Y-100520000D01*
X142755000Y-124295000D02*
X142080000Y-123620000D01*
X144585000Y-125700000D02*
X143180000Y-124295000D01*
X142180000Y-116520000D02*
X144505000Y-116520000D01*
X154680000Y-117260000D02*
X153940000Y-116520000D01*
X152805000Y-116520000D02*
X151005000Y-118320000D01*
X156130000Y-131050000D02*
X156130000Y-131830000D01*
X156680000Y-92650000D02*
X156970000Y-92360000D01*
X138890000Y-108320000D02*
X138870000Y-108340000D01*
X146430000Y-95160000D02*
X146740000Y-94850000D01*
X142080000Y-123620000D02*
X142080000Y-122260000D01*
X138870000Y-108340000D02*
X138370000Y-107840000D01*
X158530000Y-101380000D02*
X158530000Y-99880000D01*
X149300000Y-91900000D02*
X148800000Y-91400000D01*
X162040000Y-110430000D02*
X161950000Y-110430000D01*
X144505000Y-116520000D02*
X145105000Y-115920000D01*
X160680000Y-129380000D02*
X162080000Y-130780000D01*
X147120000Y-97490000D02*
X150020000Y-97490000D01*
X144060000Y-97490000D02*
X143200000Y-98350000D01*
X145105000Y-117720000D02*
X143880000Y-118945000D01*
X158365000Y-101545000D02*
X158530000Y-101380000D01*
X141060000Y-98350000D02*
X138165000Y-98350000D01*
X141060000Y-99285000D02*
X141450000Y-99675000D01*
X145450000Y-89450000D02*
X145450000Y-88985000D01*
X145180000Y-112720000D02*
X145180000Y-114070000D01*
X155215000Y-95405000D02*
X155240000Y-95430000D01*
X145105000Y-115920000D02*
X145105000Y-114145000D01*
X154680000Y-117870000D02*
X154680000Y-117260000D01*
X160680000Y-129380000D02*
X158900000Y-127600000D01*
X160170000Y-97960000D02*
X161030000Y-97100000D01*
X158365000Y-101545000D02*
X154215000Y-101545000D01*
X144930000Y-120820000D02*
X145980000Y-121870000D01*
X148000000Y-127690000D02*
X148000000Y-129870000D01*
X142305000Y-111935000D02*
X142305000Y-110595000D01*
X158655000Y-131375000D02*
X158080000Y-130800000D01*
X158080000Y-130800000D02*
X156380000Y-130800000D01*
X150020000Y-97490000D02*
X150900000Y-96610000D01*
X145105000Y-117720000D02*
X145105000Y-115920000D01*
X153940000Y-116520000D02*
X152805000Y-116520000D01*
X157255000Y-121145000D02*
X156555000Y-120445000D01*
X155240000Y-100520000D02*
X154215000Y-101545000D01*
X162830000Y-121150000D02*
X157260000Y-121150000D01*
%TO.N,VIN*%
X153490000Y-125340000D02*
X150312500Y-125340000D01*
X155780000Y-122045000D02*
X155105000Y-122045000D01*
X149742500Y-124770000D02*
X148992500Y-125520000D01*
X144900000Y-124265000D02*
X144900000Y-122650000D01*
X154110000Y-121050000D02*
X154110000Y-124720000D01*
X144955000Y-124320000D02*
X144900000Y-124265000D01*
X146155000Y-125520000D02*
X144955000Y-124320000D01*
X153580000Y-120520000D02*
X153580000Y-117970000D01*
X144805000Y-122745000D02*
X144980000Y-122570000D01*
X155105000Y-122045000D02*
X153580000Y-120520000D01*
X153580000Y-120520000D02*
X154110000Y-121050000D01*
X150312500Y-125340000D02*
X149742500Y-124770000D01*
X154110000Y-124720000D02*
X153490000Y-125340000D01*
X143180000Y-122745000D02*
X144805000Y-122745000D01*
X148992500Y-125520000D02*
X146155000Y-125520000D01*
X144900000Y-122650000D02*
X144980000Y-122570000D01*
X153580000Y-117970000D02*
X153680000Y-117870000D01*
%TO.N,+3.3V*%
X156850000Y-97940000D02*
X156510000Y-98280000D01*
X140975000Y-77735000D02*
X145450000Y-77735000D01*
X139735000Y-96130000D02*
X139190000Y-96675000D01*
X146655000Y-118185000D02*
X146655000Y-117720000D01*
X146655000Y-114145000D02*
X146680000Y-114120000D01*
X146655000Y-117720000D02*
X146655000Y-115920000D01*
X146655000Y-115920000D02*
X146655000Y-114145000D01*
X163650000Y-122350000D02*
X162830000Y-122350000D01*
X153720000Y-113200000D02*
X157360000Y-113200000D01*
X140940000Y-77700000D02*
X140975000Y-77735000D01*
X144980000Y-119820000D02*
X145020000Y-119820000D01*
X146680000Y-108530000D02*
X147110000Y-108100000D01*
X142200000Y-96140000D02*
X142210000Y-96130000D01*
X142200000Y-96140000D02*
X142190000Y-96130000D01*
X164080000Y-121920000D02*
X163650000Y-122350000D01*
X148330000Y-115920000D02*
X146655000Y-115920000D01*
X164080000Y-119920000D02*
X164080000Y-121920000D01*
X146680000Y-108530000D02*
X146680000Y-114120000D01*
X156850000Y-94770000D02*
X156850000Y-97940000D01*
X153350000Y-113570000D02*
X153720000Y-113200000D01*
X139190000Y-96675000D02*
X137290000Y-96675000D01*
X158100000Y-93520000D02*
X156850000Y-94770000D01*
X147110000Y-108100000D02*
X147110000Y-104990000D01*
X142210000Y-96130000D02*
X144120000Y-96130000D01*
X145020000Y-119820000D02*
X146655000Y-118185000D01*
X157360000Y-113200000D02*
X164080000Y-119920000D01*
X142190000Y-96130000D02*
X139735000Y-96130000D01*
X158100000Y-93205000D02*
X158100000Y-93520000D01*
%TO.N,3.3V2*%
X158625000Y-116345000D02*
X160320000Y-118040000D01*
X159830000Y-106240000D02*
X160780000Y-105290000D01*
X150915000Y-107885000D02*
X149705000Y-107885000D01*
X153680000Y-115120000D02*
X153540000Y-115120000D01*
X153385000Y-93610000D02*
X153385000Y-93285000D01*
X155340000Y-111600000D02*
X153960000Y-111600000D01*
X160680000Y-91730000D02*
X155980000Y-91730000D01*
X154660000Y-92660000D02*
X155080000Y-92660000D01*
X164400000Y-102200000D02*
X164500000Y-102100000D01*
X153960000Y-111600000D02*
X150245000Y-107885000D01*
X161220000Y-92270000D02*
X160680000Y-91730000D01*
X164500000Y-102100000D02*
X164485000Y-102085000D01*
X164000000Y-102600000D02*
X164400000Y-102200000D01*
X161220000Y-93930000D02*
X161220000Y-92270000D01*
X164000000Y-111900000D02*
X164000000Y-102600000D01*
X162665000Y-102275000D02*
X162665000Y-102085000D01*
X162830000Y-112420000D02*
X163480000Y-112420000D01*
X167325000Y-102085000D02*
X168030000Y-101380000D01*
X157040000Y-114530000D02*
X157780000Y-115270000D01*
X153385000Y-93610000D02*
X153710000Y-93610000D01*
X159830000Y-107940000D02*
X160780000Y-106990000D01*
X168030000Y-101380000D02*
X168030000Y-98965000D01*
X150245000Y-107885000D02*
X149705000Y-107885000D01*
X160780000Y-104160000D02*
X162665000Y-102275000D01*
X160780000Y-106990000D02*
X160780000Y-105290000D01*
X164580000Y-113320000D02*
X164000000Y-112740000D01*
X151670000Y-109400000D02*
X151715000Y-109355000D01*
X163480000Y-112420000D02*
X164000000Y-111900000D01*
X164000000Y-112740000D02*
X164000000Y-111900000D01*
X161360000Y-100780000D02*
X162665000Y-102085000D01*
X157780000Y-115270000D02*
X157780000Y-116345000D01*
X157780000Y-116345000D02*
X158625000Y-116345000D01*
X153710000Y-93610000D02*
X154660000Y-92660000D01*
X164485000Y-102085000D02*
X162665000Y-102085000D01*
X155080000Y-92660000D02*
X155980000Y-91760000D01*
X160780000Y-105290000D02*
X160780000Y-104160000D01*
X164485000Y-102085000D02*
X167325000Y-102085000D01*
X153540000Y-115120000D02*
X151670000Y-113250000D01*
X151670000Y-113250000D02*
X151670000Y-109400000D01*
X155450000Y-111710000D02*
X155340000Y-111600000D01*
%TO.N,RESET*%
X169831133Y-101265007D02*
X169831133Y-83001133D01*
X159800000Y-94805000D02*
X158150000Y-94805000D01*
X159590000Y-99590000D02*
X157730000Y-97730000D01*
X162100000Y-76700000D02*
X161435000Y-76035000D01*
X164895000Y-81185000D02*
X168030000Y-81185000D01*
X164860000Y-81220000D02*
X164895000Y-81185000D01*
X157730000Y-97730000D02*
X157730000Y-96470000D01*
X166830000Y-101180000D02*
X165240000Y-99590000D01*
X168510000Y-102590000D02*
X169804993Y-101295007D01*
X158365000Y-103695000D02*
X154215000Y-103695000D01*
X169831133Y-83001133D02*
X168030000Y-81200000D01*
X158150000Y-94805000D02*
X158100000Y-94855000D01*
X168270000Y-102590000D02*
X168510000Y-102590000D01*
X157730000Y-96470000D02*
X158100000Y-96100000D01*
X168030000Y-81200000D02*
X168030000Y-81185000D01*
X161435000Y-76035000D02*
X159450000Y-76035000D01*
X159590000Y-103330000D02*
X159590000Y-99590000D01*
X158100000Y-96100000D02*
X158100000Y-94855000D01*
X159225000Y-103695000D02*
X159590000Y-103330000D01*
X165240000Y-99590000D02*
X159590000Y-99590000D01*
X158365000Y-103695000D02*
X159225000Y-103695000D01*
%TO.N,VBAT*%
X144385000Y-94850000D02*
X143680000Y-94145000D01*
X139780000Y-118800000D02*
X139780000Y-116850000D01*
X140700000Y-94145000D02*
X143680000Y-94145000D01*
X142620000Y-103700000D02*
X143550000Y-104630000D01*
X143855000Y-110595000D02*
X143855000Y-111620000D01*
X137550000Y-121030000D02*
X139780000Y-118800000D01*
X139200000Y-94145000D02*
X140700000Y-94145000D01*
X143530000Y-110270000D02*
X143855000Y-110595000D01*
X143550000Y-104630000D02*
X143550000Y-105500000D01*
X141310000Y-115320000D02*
X142180000Y-115320000D01*
X143120000Y-100210000D02*
X142620000Y-100710000D01*
X145170000Y-94870000D02*
X145190000Y-94850000D01*
X142180000Y-115320000D02*
X143855000Y-113645000D01*
X140920000Y-95170000D02*
X140920000Y-94365000D01*
X140920000Y-94365000D02*
X140700000Y-94145000D01*
X143855000Y-113645000D02*
X143855000Y-111620000D01*
X139190000Y-94135000D02*
X137290000Y-94135000D01*
X143530000Y-105910000D02*
X143530000Y-110270000D01*
X142620000Y-100710000D02*
X142620000Y-103700000D01*
X145190000Y-94850000D02*
X144385000Y-94850000D01*
X139200000Y-94145000D02*
X139190000Y-94135000D01*
X139780000Y-116850000D02*
X141310000Y-115320000D01*
%TO.N,NEOPIXEL*%
X161065000Y-83685000D02*
X159450000Y-83685000D01*
X156400000Y-93880000D02*
X156090000Y-93570000D01*
X161460000Y-84080000D02*
X161065000Y-83685000D01*
X156090000Y-93570000D02*
X155585000Y-93570000D01*
%TO.N,VBUS*%
X150210000Y-99480000D02*
X146120000Y-99480000D01*
X148180000Y-121320000D02*
X148880000Y-121320000D01*
X149680000Y-120520000D02*
X149680000Y-122807500D01*
X150480000Y-131780000D02*
X150530000Y-131830000D01*
X141620000Y-121040000D02*
X141400000Y-121260000D01*
X149050000Y-128910000D02*
X150230000Y-130090000D01*
X149355000Y-118320000D02*
X149355000Y-120195000D01*
X143350000Y-126790000D02*
X148680000Y-126790000D01*
X151850000Y-97840000D02*
X150210000Y-99480000D01*
X149355000Y-120195000D02*
X149680000Y-120520000D01*
X144230000Y-102900000D02*
X143550000Y-102900000D01*
X144760000Y-108870000D02*
X144760000Y-103430000D01*
X147680000Y-113622082D02*
X149355000Y-115297082D01*
X141400000Y-121260000D02*
X141400000Y-124840000D01*
X144760000Y-103430000D02*
X144230000Y-102900000D01*
X163100000Y-96520000D02*
X165735000Y-93885000D01*
X150230000Y-130090000D02*
X150230000Y-131830000D01*
X149355000Y-115297082D02*
X149355000Y-118320000D01*
X143550000Y-102900000D02*
X143550000Y-101530000D01*
X159370000Y-97310000D02*
X160160000Y-96520000D01*
X165735000Y-93885000D02*
X168030000Y-93885000D01*
X149330000Y-96430000D02*
X149330000Y-94845000D01*
X148880000Y-121320000D02*
X149680000Y-120520000D01*
X158660000Y-97310000D02*
X159370000Y-97310000D01*
X160160000Y-96520000D02*
X163100000Y-96520000D01*
X149050000Y-127160000D02*
X149050000Y-128910000D01*
X147680000Y-111770000D02*
X147680000Y-113622082D01*
X141400000Y-124840000D02*
X143350000Y-126790000D01*
X149680000Y-122807500D02*
X149742500Y-122870000D01*
X148680000Y-126790000D02*
X149050000Y-127160000D01*
%TO.N,Net-(D3-A)*%
X136465000Y-109840000D02*
X136465000Y-107877500D01*
X136465000Y-107877500D02*
X136427500Y-107840000D01*
%TO.N,Net-(D3-K)*%
X139747500Y-109840000D02*
X138040000Y-109840000D01*
X141430000Y-106170000D02*
X141430000Y-105445000D01*
X138240000Y-109640000D02*
X138040000Y-109840000D01*
X139967500Y-109620000D02*
X139747500Y-109840000D01*
X141630000Y-107380000D02*
X141630000Y-106370000D01*
X141630000Y-106370000D02*
X141430000Y-106170000D01*
X141290000Y-109620000D02*
X139967500Y-109620000D01*
%TO.N,CLK*%
X159120000Y-90210000D02*
X158400000Y-89490000D01*
X158400000Y-89490000D02*
X158400000Y-88985000D01*
X164080000Y-91480000D02*
X162810000Y-90210000D01*
X162810000Y-90210000D02*
X159120000Y-90210000D01*
X164460000Y-91480000D02*
X164080000Y-91480000D01*
%TO.N,MOSI*%
X160485000Y-76885000D02*
X159450000Y-76885000D01*
X161340000Y-77980000D02*
X161340000Y-77740000D01*
X161340000Y-77740000D02*
X160485000Y-76885000D01*
%TO.N,CS*%
X158400000Y-90830000D02*
X161790000Y-90830000D01*
X161790000Y-90830000D02*
X162600000Y-91640000D01*
X155850000Y-89490000D02*
X155850000Y-88985000D01*
X154820000Y-90520000D02*
X155850000Y-89490000D01*
%TO.N,MISO*%
X162890000Y-79310000D02*
X162765000Y-79435000D01*
X162765000Y-79435000D02*
X159450000Y-79435000D01*
%TO.N,D+*%
X153330000Y-132980000D02*
X153530000Y-132780000D01*
X153530000Y-130450000D02*
X153530000Y-131830000D01*
X152560000Y-129480000D02*
X153530000Y-130450000D01*
X139690000Y-125600000D02*
X139690000Y-125620000D01*
X143090000Y-91900000D02*
X140090000Y-91900000D01*
X153300000Y-90560000D02*
X153300000Y-88985000D01*
X143550000Y-129480000D02*
X146350000Y-129480000D01*
X139690000Y-125620000D02*
X143550000Y-129480000D01*
X152460000Y-129480000D02*
X152560000Y-129480000D01*
X152740000Y-132980000D02*
X153330000Y-132980000D01*
X143110000Y-91920000D02*
X143090000Y-91900000D01*
X153530000Y-132780000D02*
X153530000Y-131830000D01*
X152530000Y-131830000D02*
X152530000Y-132770000D01*
X152530000Y-132770000D02*
X152740000Y-132980000D01*
X152530000Y-91330000D02*
X153300000Y-90560000D01*
%TO.N,Net-(J2-CC1)*%
X159480000Y-133025000D02*
X158265000Y-134240000D01*
X158265000Y-134240000D02*
X152430000Y-134240000D01*
X152430000Y-134240000D02*
X151530000Y-133340000D01*
X151530000Y-133340000D02*
X151530000Y-131830000D01*
%TO.N,D-*%
X152190000Y-130650000D02*
X152675000Y-130650000D01*
X140630000Y-119350000D02*
X140600000Y-119380000D01*
X152450000Y-89900000D02*
X152450000Y-88985000D01*
X143420000Y-127810000D02*
X146360000Y-127810000D01*
X150710000Y-91300000D02*
X151050000Y-91300000D01*
X143610000Y-93210000D02*
X140280000Y-93210000D01*
X153030000Y-131005000D02*
X153030000Y-131830000D01*
X151050000Y-91300000D02*
X152450000Y-89900000D01*
X143630000Y-93190000D02*
X143610000Y-93210000D01*
X140600000Y-124990000D02*
X143420000Y-127810000D01*
X152030000Y-131830000D02*
X152030000Y-130810000D01*
X152675000Y-130650000D02*
X153030000Y-131005000D01*
X150020000Y-128480000D02*
X150020000Y-128360000D01*
X152190000Y-130650000D02*
X150020000Y-128480000D01*
X140600000Y-119380000D02*
X140600000Y-124990000D01*
X152030000Y-130810000D02*
X152190000Y-130650000D01*
%TO.N,Net-(J2-CC2)*%
X161050000Y-130970000D02*
X160280000Y-130200000D01*
X161680000Y-133025000D02*
X161050000Y-132395000D01*
X161050000Y-132395000D02*
X161050000Y-130970000D01*
X154530000Y-130760000D02*
X154530000Y-131830000D01*
X160280000Y-130200000D02*
X155090000Y-130200000D01*
X155090000Y-130200000D02*
X154530000Y-130760000D01*
%TO.N,SCL*%
X159370000Y-105070000D02*
X158375000Y-105070000D01*
X160190000Y-104250000D02*
X159370000Y-105070000D01*
X158180000Y-105265000D02*
X158180000Y-106240000D01*
X166295000Y-91345000D02*
X162035000Y-87085000D01*
X160190000Y-103350000D02*
X160190000Y-104250000D01*
X161130000Y-102410000D02*
X160190000Y-103350000D01*
X158780000Y-112220000D02*
X158580000Y-112020000D01*
X167975000Y-91400000D02*
X168030000Y-91345000D01*
X157305000Y-106240000D02*
X158180000Y-106240000D01*
X161910000Y-95370000D02*
X162050000Y-95370000D01*
X164580000Y-124020000D02*
X164580000Y-124320000D01*
X154655000Y-106615000D02*
X156670000Y-106615000D01*
X164150000Y-124750000D02*
X162830000Y-124750000D01*
X162830000Y-114820000D02*
X161380000Y-114820000D01*
X162050000Y-95370000D02*
X166020000Y-91400000D01*
X166020000Y-91400000D02*
X167975000Y-91400000D01*
X158375000Y-105070000D02*
X158180000Y-105265000D01*
X156930000Y-106615000D02*
X157305000Y-106240000D01*
X161380000Y-114820000D02*
X158780000Y-112220000D01*
X162035000Y-87085000D02*
X159450000Y-87085000D01*
X156670000Y-106615000D02*
X156930000Y-106615000D01*
X163580000Y-117610000D02*
X163580000Y-115570000D01*
X168030000Y-91345000D02*
X166295000Y-91345000D01*
X163580000Y-115570000D02*
X162830000Y-114820000D01*
X164580000Y-124320000D02*
X164150000Y-124750000D01*
%TO.N,SDA*%
X162610000Y-86070000D02*
X162930000Y-86070000D01*
X161340000Y-108950000D02*
X160950000Y-109340000D01*
X161340000Y-105150000D02*
X161340000Y-108950000D01*
X163590000Y-123550000D02*
X165280000Y-121860000D01*
X162830000Y-123550000D02*
X163590000Y-123550000D01*
X163580000Y-113620000D02*
X162830000Y-113620000D01*
X161710000Y-113620000D02*
X162830000Y-113620000D01*
X158145000Y-107905000D02*
X158180000Y-107940000D01*
X159580000Y-109340000D02*
X158180000Y-107940000D01*
X162610000Y-86070000D02*
X162445000Y-86235000D01*
X165280000Y-121860000D02*
X165280000Y-115320000D01*
X162445000Y-86235000D02*
X159450000Y-86235000D01*
X162930000Y-86070000D02*
X165665000Y-88805000D01*
X162620000Y-103870000D02*
X161340000Y-105150000D01*
X155580000Y-107905000D02*
X158145000Y-107905000D01*
X160950000Y-109340000D02*
X159580000Y-109340000D01*
X159980000Y-111890000D02*
X161710000Y-113620000D01*
X165665000Y-88805000D02*
X168030000Y-88805000D01*
X165280000Y-115320000D02*
X163580000Y-113620000D01*
%TO.N,IO41*%
X159450000Y-82835000D02*
X164775000Y-82835000D01*
X164775000Y-82835000D02*
X165665000Y-83725000D01*
X165665000Y-83725000D02*
X168030000Y-83725000D01*
%TO.N,IO39*%
X160445000Y-84535000D02*
X160920000Y-85010000D01*
X160920000Y-85010000D02*
X164410000Y-85010000D01*
X164410000Y-85010000D02*
X165665000Y-86265000D01*
X165665000Y-86265000D02*
X168030000Y-86265000D01*
X159450000Y-84535000D02*
X160445000Y-84535000D01*
%TO.N,TX*%
X159450000Y-81135000D02*
X163585000Y-81135000D01*
X166075000Y-78645000D02*
X168030000Y-78645000D01*
X163585000Y-81135000D02*
X166075000Y-78645000D01*
%TO.N,RX*%
X159450000Y-80285000D02*
X163555000Y-80285000D01*
X163555000Y-80285000D02*
X167735000Y-76105000D01*
X167735000Y-76105000D02*
X168030000Y-76105000D01*
%TO.N,IO5*%
X137290000Y-81450000D02*
X137290000Y-81435000D01*
X141950000Y-84310000D02*
X140150000Y-84310000D01*
X143425000Y-82835000D02*
X141950000Y-84310000D01*
X145450000Y-82835000D02*
X143425000Y-82835000D01*
X140150000Y-84310000D02*
X137290000Y-81450000D01*
%TO.N,IO4*%
X139030000Y-81820000D02*
X139030000Y-80635000D01*
X143245000Y-81985000D02*
X141660000Y-83570000D01*
X139030000Y-80635000D02*
X137290000Y-78895000D01*
X140780000Y-83570000D02*
X139030000Y-81820000D01*
X141660000Y-83570000D02*
X140780000Y-83570000D01*
X145450000Y-81985000D02*
X143245000Y-81985000D01*
X137290000Y-78960000D02*
X137290000Y-78895000D01*
%TO.N,IO9*%
X137290000Y-91595000D02*
X138525000Y-91595000D01*
X138525000Y-91595000D02*
X143885000Y-86235000D01*
X143885000Y-86235000D02*
X145450000Y-86235000D01*
%TO.N,IO3*%
X137325000Y-76355000D02*
X137290000Y-76355000D01*
X139700000Y-78730000D02*
X137325000Y-76355000D01*
X143195000Y-81135000D02*
X141660000Y-82670000D01*
X140810000Y-82670000D02*
X139700000Y-81560000D01*
X139700000Y-81560000D02*
X139700000Y-78730000D01*
X141660000Y-82670000D02*
X140810000Y-82670000D01*
X145450000Y-81135000D02*
X143195000Y-81135000D01*
%TO.N,IO7*%
X137290000Y-86515000D02*
X139190000Y-86515000D01*
X143865000Y-84535000D02*
X145450000Y-84535000D01*
X139190000Y-86515000D02*
X139200000Y-86525000D01*
X141875000Y-86525000D02*
X143865000Y-84535000D01*
X139200000Y-86525000D02*
X141875000Y-86525000D01*
%TO.N,IO8*%
X143845000Y-85385000D02*
X140175000Y-89055000D01*
X145450000Y-85385000D02*
X143845000Y-85385000D01*
X140175000Y-89055000D02*
X137290000Y-89055000D01*
%TO.N,IO6*%
X142230000Y-85370000D02*
X143915000Y-83685000D01*
X143915000Y-83685000D02*
X145450000Y-83685000D01*
X139680000Y-85370000D02*
X142230000Y-85370000D01*
X138285000Y-83975000D02*
X139680000Y-85370000D01*
X137290000Y-83975000D02*
X138285000Y-83975000D01*
%TO.N,VBAT_SW_OUT*%
X152610000Y-123820000D02*
X151617500Y-123820000D01*
X153120000Y-124330000D02*
X152610000Y-123820000D01*
%TO.N,Net-(U2-EN)*%
X146605000Y-124320000D02*
X147090000Y-123835000D01*
X147090000Y-122680000D02*
X146980000Y-122570000D01*
X147090000Y-123835000D02*
X147090000Y-122680000D01*
%TO.N,IO2*%
X141770000Y-81170000D02*
X142200000Y-81170000D01*
X143040000Y-88527002D02*
X143177002Y-88527002D01*
X147860000Y-92030000D02*
X149025000Y-93195000D01*
X146680000Y-92030000D02*
X147860000Y-92030000D01*
X142200000Y-81170000D02*
X143085000Y-80285000D01*
X143085000Y-80285000D02*
X145450000Y-80285000D01*
X150900000Y-93195000D02*
X149330000Y-93195000D01*
X143177002Y-88527002D02*
X146680000Y-92030000D01*
X149025000Y-93195000D02*
X149330000Y-93195000D01*
%TO.N,IO1*%
X142365000Y-79435000D02*
X145450000Y-79435000D01*
X144920000Y-91380000D02*
X146740000Y-93200000D01*
X143060000Y-90250000D02*
X144190000Y-91380000D01*
X144190000Y-91380000D02*
X144920000Y-91380000D01*
X142170000Y-79630000D02*
X142365000Y-79435000D01*
X146990000Y-93200000D02*
X145190000Y-93200000D01*
%TO.N,Net-(U5-PROG)*%
X141650000Y-101525000D02*
X141450000Y-101325000D01*
X141650000Y-102900000D02*
X141650000Y-101525000D01*
%TO.N,VDD_SPI*%
X155680000Y-116950000D02*
X155680000Y-117870000D01*
X155650000Y-91110000D02*
X156940000Y-91110000D01*
X157550000Y-90500000D02*
X157550000Y-88985000D01*
X154670000Y-114130000D02*
X154670000Y-115940000D01*
X156940000Y-91110000D02*
X157550000Y-90500000D01*
X152380000Y-93190000D02*
X152840000Y-92730000D01*
X152840000Y-96720000D02*
X152380000Y-96260000D01*
X152380000Y-96260000D02*
X152380000Y-93190000D01*
X154650000Y-92110000D02*
X155650000Y-91110000D01*
X152840000Y-92730000D02*
X153630000Y-92730000D01*
X154250000Y-92110000D02*
X154650000Y-92110000D01*
X153630000Y-92730000D02*
X154250000Y-92110000D01*
X154670000Y-115940000D02*
X155680000Y-116950000D01*
X152840000Y-99760000D02*
X152840000Y-96720000D01*
%TO.N,BOOT*%
X141565000Y-78585000D02*
X145450000Y-78585000D01*
X146140000Y-103690000D02*
X146140000Y-103695000D01*
X146140000Y-103695000D02*
X150290000Y-103695000D01*
X144930000Y-102480000D02*
X146140000Y-103690000D01*
X144860000Y-98810000D02*
X144930000Y-98880000D01*
X144930000Y-98880000D02*
X144930000Y-102480000D01*
X140860000Y-79290000D02*
X141565000Y-78585000D01*
%TD*%
M02*
