%TF.GenerationSoftware,KiCad,Pcbnew,8.0.5-1.fc40*%
%TF.CreationDate,2024-10-05T09:08:47-05:00*%
%TF.ProjectId,PCB_ESP32,5043425f-4553-4503-9332-2e6b69636164,rev?*%
%TF.SameCoordinates,Original*%
%TF.FileFunction,Copper,L2,Bot*%
%TF.FilePolarity,Positive*%
%FSLAX46Y46*%
G04 Gerber Fmt 4.6, Leading zero omitted, Abs format (unit mm)*
G04 Created by KiCad (PCBNEW 8.0.5-1.fc40) date 2024-10-05 09:08:47*
%MOMM*%
%LPD*%
G01*
G04 APERTURE LIST*
G04 Aperture macros list*
%AMRoundRect*
0 Rectangle with rounded corners*
0 $1 Rounding radius*
0 $2 $3 $4 $5 $6 $7 $8 $9 X,Y pos of 4 corners*
0 Add a 4 corners polygon primitive as box body*
4,1,4,$2,$3,$4,$5,$6,$7,$8,$9,$2,$3,0*
0 Add four circle primitives for the rounded corners*
1,1,$1+$1,$2,$3*
1,1,$1+$1,$4,$5*
1,1,$1+$1,$6,$7*
1,1,$1+$1,$8,$9*
0 Add four rect primitives between the rounded corners*
20,1,$1+$1,$2,$3,$4,$5,0*
20,1,$1+$1,$4,$5,$6,$7,0*
20,1,$1+$1,$6,$7,$8,$9,0*
20,1,$1+$1,$8,$9,$2,$3,0*%
%AMRotRect*
0 Rectangle, with rotation*
0 The origin of the aperture is its center*
0 $1 length*
0 $2 width*
0 $3 Rotation angle, in degrees counterclockwise*
0 Add horizontal line*
21,1,$1,$2,0,0,$3*%
G04 Aperture macros list end*
%TA.AperFunction,ComponentPad*%
%ADD10O,1.000000X2.100000*%
%TD*%
%TA.AperFunction,ComponentPad*%
%ADD11O,1.000000X1.600000*%
%TD*%
%TA.AperFunction,ComponentPad*%
%ADD12R,1.700000X1.700000*%
%TD*%
%TA.AperFunction,ComponentPad*%
%ADD13O,1.700000X1.700000*%
%TD*%
%TA.AperFunction,SMDPad,CuDef*%
%ADD14RoundRect,0.225000X0.250000X-0.225000X0.250000X0.225000X-0.250000X0.225000X-0.250000X-0.225000X0*%
%TD*%
%TA.AperFunction,SMDPad,CuDef*%
%ADD15RoundRect,0.250000X1.000000X-0.375000X1.000000X0.375000X-1.000000X0.375000X-1.000000X-0.375000X0*%
%TD*%
%TA.AperFunction,SMDPad,CuDef*%
%ADD16R,1.900000X1.500000*%
%TD*%
%TA.AperFunction,SMDPad,CuDef*%
%ADD17RotRect,0.200000X0.200000X225.000000*%
%TD*%
%TA.AperFunction,SMDPad,CuDef*%
%ADD18R,0.500000X0.500000*%
%TD*%
%TA.AperFunction,SMDPad,CuDef*%
%ADD19R,1.400000X1.000000*%
%TD*%
%TA.AperFunction,SMDPad,CuDef*%
%ADD20R,3.200000X1.200000*%
%TD*%
%TA.AperFunction,SMDPad,CuDef*%
%ADD21R,0.800000X1.200000*%
%TD*%
%TA.AperFunction,SMDPad,CuDef*%
%ADD22R,1.200000X1.200000*%
%TD*%
%TA.AperFunction,SMDPad,CuDef*%
%ADD23R,1.400000X0.700000*%
%TD*%
%TA.AperFunction,SMDPad,CuDef*%
%ADD24R,1.200000X0.700000*%
%TD*%
%TA.AperFunction,SMDPad,CuDef*%
%ADD25R,3.600000X2.600000*%
%TD*%
%TA.AperFunction,ViaPad*%
%ADD26C,1.000000*%
%TD*%
%TA.AperFunction,Conductor*%
%ADD27C,0.300000*%
%TD*%
G04 APERTURE END LIST*
D10*
%TO.P,J2,S1,SHIELD*%
%TO.N,GND*%
X148460000Y-132395000D03*
D11*
X148460000Y-136575000D03*
D10*
X157100000Y-132395000D03*
D11*
X157100000Y-136575000D03*
%TD*%
D12*
%TO.P,J3,1,Pin_1*%
%TO.N,RX*%
X168030000Y-76105000D03*
D13*
%TO.P,J3,2,Pin_2*%
%TO.N,TX*%
X168030000Y-78645000D03*
%TO.P,J3,3,Pin_3*%
%TO.N,RESET*%
X168030000Y-81185000D03*
%TO.P,J3,4,Pin_4*%
%TO.N,IO41*%
X168030000Y-83725000D03*
%TO.P,J3,5,Pin_5*%
%TO.N,IO39*%
X168030000Y-86265000D03*
%TO.P,J3,6,Pin_6*%
%TO.N,SDA*%
X168030000Y-88805000D03*
%TO.P,J3,7,Pin_7*%
%TO.N,SCL*%
X168030000Y-91345000D03*
%TO.P,J3,8,Pin_8*%
%TO.N,VBUS*%
X168030000Y-93885000D03*
%TO.P,J3,9,Pin_9*%
%TO.N,GND*%
X168030000Y-96425000D03*
%TO.P,J3,10,Pin_10*%
%TO.N,3.3V2*%
X168030000Y-98965000D03*
%TD*%
D14*
%TO.P,C8,1*%
%TO.N,GND*%
X148780000Y-124395000D03*
%TO.P,C8,2*%
%TO.N,Net-(J1-VDD)*%
X148780000Y-122845000D03*
%TD*%
D15*
%TO.P,SW1,1,A*%
%TO.N,VBAT_SW_OUT*%
X140680000Y-137140000D03*
%TO.P,SW1,2,B*%
%TO.N,VBAT*%
X140680000Y-134640000D03*
%TO.P,SW1,3,C*%
%TO.N,unconnected-(SW1A-C-Pad3)*%
X140680000Y-132140000D03*
%TD*%
D16*
%TO.P,J1,*%
%TO.N,*%
X166280000Y-113120000D03*
D17*
X166730000Y-113870000D03*
D18*
X166980000Y-114120000D03*
D19*
X151280000Y-115020000D03*
D20*
X165280000Y-126420000D03*
D21*
X161680000Y-126420000D03*
D22*
X155480000Y-126420000D03*
D23*
%TO.P,J1,1,DAT2*%
%TO.N,unconnected-(J1-DAT2-Pad1)*%
X151280000Y-116920000D03*
%TO.P,J1,2,DAT3/CD*%
%TO.N,CS*%
X151280000Y-118020000D03*
%TO.P,J1,3,CMD*%
%TO.N,MOSI*%
X151280000Y-119120000D03*
%TO.P,J1,4,VDD*%
%TO.N,Net-(J1-VDD)*%
X151280000Y-120220000D03*
%TO.P,J1,5,CLK*%
%TO.N,CLK*%
X151280000Y-121320000D03*
%TO.P,J1,6,VSS*%
%TO.N,GND*%
X151280000Y-122420000D03*
%TO.P,J1,7,DAT0*%
%TO.N,MISO*%
X151280000Y-123520000D03*
%TO.P,J1,8,DAT1*%
%TO.N,unconnected-(J1-DAT1-Pad8)*%
X151280000Y-124620000D03*
D24*
%TO.P,J1,9,SHIELD*%
%TO.N,GND*%
X151180000Y-125570000D03*
%TD*%
D25*
%TO.P,BT1,1,+*%
%TO.N,Net-(BT1-+)*%
X152200000Y-104400000D03*
%TO.P,BT1,2,-*%
%TO.N,GND*%
X152200000Y-75100000D03*
%TD*%
D12*
%TO.P,J4,1,Pin_1*%
%TO.N,GND*%
X137290000Y-99215000D03*
D13*
%TO.P,J4,2,Pin_2*%
%TO.N,+3.3V*%
X137290000Y-96675000D03*
%TO.P,J4,3,Pin_3*%
%TO.N,VBAT*%
X137290000Y-94135000D03*
%TO.P,J4,4,Pin_4*%
%TO.N,IO9*%
X137290000Y-91595000D03*
%TO.P,J4,5,Pin_5*%
%TO.N,IO8*%
X137290000Y-89055000D03*
%TO.P,J4,6,Pin_6*%
%TO.N,IO7*%
X137290000Y-86515000D03*
%TO.P,J4,7,Pin_7*%
%TO.N,IO6*%
X137290000Y-83975000D03*
%TO.P,J4,8,Pin_8*%
%TO.N,IO5*%
X137290000Y-81435000D03*
%TO.P,J4,9,Pin_9*%
%TO.N,IO4*%
X137290000Y-78895000D03*
%TO.P,J4,10,Pin_10*%
%TO.N,IO3*%
X137290000Y-76355000D03*
%TD*%
D26*
%TO.N,Net-(BT1-+)*%
X156645000Y-109445000D03*
X157080000Y-111920000D03*
X152925000Y-111875000D03*
%TO.N,GND*%
X148000000Y-127690000D03*
X147120000Y-97490000D03*
X150900000Y-96610000D03*
X160170000Y-97960000D03*
X148930000Y-113360000D03*
X144930000Y-112470000D03*
X162410000Y-108340000D03*
X143880000Y-118945000D03*
X160680000Y-129380000D03*
X142810000Y-112440000D03*
X156680000Y-92650000D03*
X149300000Y-91900000D03*
X144585000Y-125835000D03*
X154460000Y-96210000D03*
X141060000Y-98350000D03*
X158530000Y-99880000D03*
%TO.N,+3.3V*%
X156510000Y-98280000D03*
X144120000Y-96130000D03*
X140940000Y-77700000D03*
X142200000Y-96140000D03*
X147110000Y-104990000D03*
X153350000Y-113570000D03*
X148330000Y-115920000D03*
%TO.N,3.3V2*%
X160320000Y-118040000D03*
X161220000Y-93930000D03*
X161360000Y-100780000D03*
X155450000Y-111710000D03*
X157040000Y-114530000D03*
X164580000Y-113320000D03*
%TO.N,RESET*%
X162100000Y-76700000D03*
X164860000Y-81220000D03*
X168270000Y-102590000D03*
X166830000Y-101180000D03*
%TO.N,VBAT*%
X137550000Y-121030000D03*
X140920000Y-95170000D03*
X143120000Y-100210000D03*
%TO.N,NEOPIXEL*%
X161460000Y-84080000D03*
X156400000Y-93880000D03*
%TO.N,VBUS*%
X149330000Y-96430000D03*
X151850000Y-97840000D03*
X158660000Y-97310000D03*
X141620000Y-121040000D03*
X146120000Y-99480000D03*
X144760000Y-108870000D03*
X147680000Y-111770000D03*
X148180000Y-121320000D03*
X143550000Y-101530000D03*
%TO.N,Net-(D3-K)*%
X141290000Y-109620000D03*
X141630000Y-107380000D03*
%TO.N,CLK*%
X164460000Y-91480000D03*
%TO.N,MOSI*%
X161340000Y-77980000D03*
%TO.N,CS*%
X154820000Y-90520000D03*
X162600000Y-91640000D03*
X158400000Y-90830000D03*
%TO.N,MISO*%
X162890000Y-79310000D03*
%TO.N,D+*%
X143110000Y-91920000D03*
X152460000Y-129480000D03*
X140090000Y-91900000D03*
X139690000Y-125600000D03*
X152530000Y-91330000D03*
X146350000Y-129480000D03*
%TO.N,D-*%
X146360000Y-127810000D03*
X143630000Y-93190000D03*
X150710000Y-91300000D03*
X140630000Y-119350000D03*
X150020000Y-128360000D03*
X140280000Y-93210000D03*
%TO.N,SCL*%
X161130000Y-102410000D03*
X156670000Y-106615000D03*
X158580000Y-112020000D03*
X164580000Y-124020000D03*
X163580000Y-117610000D03*
X161910000Y-95370000D03*
%TO.N,SDA*%
X159980000Y-111890000D03*
X162620000Y-103870000D03*
X159580000Y-109340000D03*
X162610000Y-86070000D03*
%TO.N,VBAT_SW_OUT*%
X153120000Y-124330000D03*
%TO.N,IO2*%
X141770000Y-81170000D03*
X143040000Y-88527002D03*
%TO.N,IO1*%
X142170000Y-79630000D03*
X143060000Y-90250000D03*
%TO.N,VDD_SPI*%
X152840000Y-99760000D03*
X154670000Y-114130000D03*
%TO.N,BOOT*%
X144860000Y-98810000D03*
X140860000Y-79290000D03*
%TD*%
D27*
%TO.N,Net-(BT1-+)*%
X152200000Y-108500000D02*
X152200000Y-104400000D01*
X156645000Y-109445000D02*
X157080000Y-109880000D01*
X152180000Y-111130000D02*
X152180000Y-108520000D01*
X152925000Y-111875000D02*
X152180000Y-111130000D01*
X157080000Y-109880000D02*
X157080000Y-111920000D01*
X152180000Y-108520000D02*
X152200000Y-108500000D01*
%TO.N,GND*%
X146940000Y-126630000D02*
X148000000Y-127690000D01*
X160170000Y-102980000D02*
X160170000Y-97930000D01*
X145380000Y-126630000D02*
X146940000Y-126630000D01*
X160170000Y-97960000D02*
X160170000Y-97930000D01*
X152710000Y-128330000D02*
X151900000Y-128330000D01*
X162190000Y-108120000D02*
X162190000Y-105000000D01*
X148930000Y-113360000D02*
X148540000Y-113360000D01*
X148540000Y-113360000D02*
X143900000Y-118000000D01*
X154400000Y-91460000D02*
X153870000Y-90930000D01*
X153630000Y-92230000D02*
X154400000Y-91460000D01*
X144930000Y-112470000D02*
X144900000Y-112440000D01*
X148460000Y-112890000D02*
X148930000Y-113360000D01*
X144585000Y-125835000D02*
X145380000Y-126630000D01*
X158530000Y-99880000D02*
X158530000Y-99600000D01*
X148000000Y-126690000D02*
X148000000Y-127690000D01*
X148000000Y-125920000D02*
X148780000Y-125140000D01*
X152200000Y-87700000D02*
X152200000Y-75100000D01*
X151900000Y-128330000D02*
X151180000Y-127610000D01*
X150900000Y-96610000D02*
X151373553Y-96136447D01*
X162190000Y-105000000D02*
X160170000Y-102980000D01*
X151373553Y-96136447D02*
X154386447Y-96136447D01*
X162410000Y-108340000D02*
X162190000Y-108120000D01*
X148060000Y-96550000D02*
X148060000Y-93140000D01*
X154386447Y-96136447D02*
X154460000Y-96210000D01*
X148780000Y-125140000D02*
X148780000Y-124395000D01*
X144900000Y-112440000D02*
X142810000Y-112440000D01*
X148780000Y-124270000D02*
X148780000Y-124395000D01*
X148060000Y-93140000D02*
X149300000Y-91900000D01*
X155590000Y-92650000D02*
X154400000Y-91460000D01*
X145350000Y-112890000D02*
X148460000Y-112890000D01*
X143900000Y-118925000D02*
X143880000Y-118945000D01*
X153870000Y-89370000D02*
X152200000Y-87700000D01*
X160680000Y-129380000D02*
X160410000Y-129650000D01*
X147120000Y-97490000D02*
X148060000Y-96550000D01*
X144930000Y-112470000D02*
X145350000Y-112890000D01*
X160410000Y-129650000D02*
X154030000Y-129650000D01*
X149955000Y-125570000D02*
X151180000Y-125570000D01*
X151280000Y-122420000D02*
X150630000Y-122420000D01*
X151180000Y-127610000D02*
X151180000Y-125570000D01*
X148780000Y-124395000D02*
X149955000Y-125570000D01*
X153870000Y-90930000D02*
X153870000Y-89370000D01*
X143900000Y-118000000D02*
X143900000Y-118925000D01*
X149300000Y-91900000D02*
X149630000Y-92230000D01*
X154030000Y-129650000D02*
X152710000Y-128330000D01*
X156680000Y-92650000D02*
X155590000Y-92650000D01*
X148000000Y-127690000D02*
X148000000Y-125920000D01*
X158530000Y-99600000D02*
X160170000Y-97960000D01*
X149630000Y-92230000D02*
X153630000Y-92230000D01*
X150630000Y-122420000D02*
X148780000Y-124270000D01*
%TO.N,+3.3V*%
X140270000Y-77700000D02*
X140265000Y-77695000D01*
X153910000Y-98280000D02*
X153890000Y-98300000D01*
X141240000Y-93800000D02*
X142200000Y-94760000D01*
X139660000Y-78300000D02*
X139660000Y-89370000D01*
X150080000Y-115420000D02*
X149580000Y-115920000D01*
X144120000Y-96130000D02*
X144120000Y-96190000D01*
X150080000Y-114420000D02*
X150080000Y-115420000D01*
X140265000Y-77695000D02*
X139660000Y-78300000D01*
X149580000Y-115920000D02*
X148330000Y-115920000D01*
X144120000Y-96190000D02*
X147040000Y-99110000D01*
X147100000Y-99110000D02*
X147100000Y-103700000D01*
X153890000Y-98300000D02*
X153410000Y-98780000D01*
X141240000Y-90950000D02*
X141240000Y-93800000D01*
X153410000Y-98780000D02*
X147640000Y-98780000D01*
X147100000Y-99110000D02*
X147310000Y-99110000D01*
X142200000Y-94760000D02*
X142200000Y-96140000D01*
X147110000Y-103710000D02*
X147110000Y-104990000D01*
X147040000Y-99110000D02*
X147100000Y-99110000D01*
X140940000Y-77700000D02*
X140270000Y-77700000D01*
X147310000Y-99110000D02*
X147640000Y-98780000D01*
X153350000Y-113570000D02*
X150930000Y-113570000D01*
X156510000Y-98280000D02*
X153910000Y-98280000D01*
X139660000Y-89370000D02*
X141240000Y-90950000D01*
X147100000Y-103700000D02*
X147110000Y-103710000D01*
X150930000Y-113570000D02*
X150080000Y-114420000D01*
%TO.N,3.3V2*%
X160940000Y-94210000D02*
X160940000Y-96360000D01*
X155450000Y-111710000D02*
X155450000Y-112940000D01*
X164580000Y-114840000D02*
X164580000Y-113320000D01*
X155450000Y-112940000D02*
X157040000Y-114530000D01*
X161380000Y-118040000D02*
X164580000Y-114840000D01*
X161220000Y-93930000D02*
X160940000Y-94210000D01*
X161360000Y-96780000D02*
X161360000Y-100780000D01*
X160940000Y-96360000D02*
X161360000Y-96780000D01*
X160320000Y-118040000D02*
X161380000Y-118040000D01*
%TO.N,Net-(J1-VDD)*%
X151280000Y-120220000D02*
X150600000Y-120220000D01*
X148780000Y-122040000D02*
X148780000Y-122845000D01*
X150600000Y-120220000D02*
X148780000Y-122040000D01*
%TO.N,RESET*%
X166830000Y-101180000D02*
X166830000Y-101540000D01*
X167880000Y-102590000D02*
X168270000Y-102590000D01*
X164530000Y-80890000D02*
X164530000Y-79130000D01*
X164860000Y-81220000D02*
X164530000Y-80890000D01*
X166830000Y-101540000D02*
X167880000Y-102590000D01*
X164530000Y-79130000D02*
X162100000Y-76700000D01*
%TO.N,VBAT*%
X137550000Y-121030000D02*
X136260000Y-122320000D01*
X140920000Y-96610000D02*
X143120000Y-98810000D01*
X143490000Y-130600000D02*
X143490000Y-133930000D01*
X140920000Y-95170000D02*
X140920000Y-96610000D01*
X143490000Y-133930000D02*
X142780000Y-134640000D01*
X136260000Y-125051845D02*
X139128155Y-127920000D01*
X143120000Y-98810000D02*
X143120000Y-100210000D01*
X140810000Y-127920000D02*
X143490000Y-130600000D01*
X139128155Y-127920000D02*
X140810000Y-127920000D01*
X142780000Y-134640000D02*
X140680000Y-134640000D01*
X136260000Y-122320000D02*
X136260000Y-125051845D01*
%TO.N,NEOPIXEL*%
X160630000Y-85720000D02*
X160630000Y-90620000D01*
X160630000Y-90620000D02*
X157370000Y-93880000D01*
X161460000Y-84890000D02*
X160630000Y-85720000D01*
X161460000Y-84080000D02*
X161460000Y-84890000D01*
X157370000Y-93880000D02*
X156400000Y-93880000D01*
%TO.N,VBUS*%
X150460000Y-97840000D02*
X151850000Y-97840000D01*
X158600000Y-97370000D02*
X152320000Y-97370000D01*
X146120000Y-99480000D02*
X144070000Y-101530000D01*
X152320000Y-97370000D02*
X151850000Y-97840000D01*
X147780000Y-120920000D02*
X148180000Y-121320000D01*
X158660000Y-97310000D02*
X158600000Y-97370000D01*
X149330000Y-96430000D02*
X149330000Y-96710000D01*
X149330000Y-96710000D02*
X150460000Y-97840000D01*
X141620000Y-121040000D02*
X141740000Y-120920000D01*
X144760000Y-108870000D02*
X144780000Y-108870000D01*
X144070000Y-101530000D02*
X143550000Y-101530000D01*
X144780000Y-108870000D02*
X147680000Y-111770000D01*
X141740000Y-120920000D02*
X147780000Y-120920000D01*
%TO.N,Net-(D3-K)*%
X141630000Y-109280000D02*
X141290000Y-109620000D01*
X141630000Y-107380000D02*
X141630000Y-109280000D01*
%TO.N,CLK*%
X154070000Y-121320000D02*
X151280000Y-121320000D01*
X165130000Y-110260000D02*
X154070000Y-121320000D01*
X165130000Y-92150000D02*
X165130000Y-110260000D01*
X164460000Y-91480000D02*
X165130000Y-92150000D01*
%TO.N,MOSI*%
X163530000Y-92430000D02*
X164410000Y-93310000D01*
X155280000Y-119120000D02*
X151280000Y-119120000D01*
X161330000Y-82395685D02*
X163530000Y-84595685D01*
X163530000Y-84595685D02*
X163530000Y-92430000D01*
X161340000Y-77980000D02*
X161330000Y-77990000D01*
X161330000Y-77990000D02*
X161330000Y-82395685D01*
X164410000Y-93310000D02*
X164410000Y-109990000D01*
X164410000Y-109990000D02*
X155280000Y-119120000D01*
%TO.N,CS*%
X155130000Y-90830000D02*
X158400000Y-90830000D01*
X154820000Y-90520000D02*
X155130000Y-90830000D01*
X155270000Y-118020000D02*
X151280000Y-118020000D01*
X163670000Y-93690000D02*
X163670000Y-109620000D01*
X162600000Y-92620000D02*
X163670000Y-93690000D01*
X163670000Y-109620000D02*
X155270000Y-118020000D01*
X162600000Y-91640000D02*
X162600000Y-92620000D01*
%TO.N,MISO*%
X162890000Y-79310000D02*
X163400000Y-79820000D01*
X163400000Y-79820000D02*
X163400000Y-83480000D01*
X163400000Y-83480000D02*
X165890000Y-85970000D01*
X153300000Y-123310000D02*
X165460000Y-111150000D01*
X151280000Y-123520000D02*
X151490000Y-123310000D01*
X165890000Y-85970000D02*
X165890000Y-106490000D01*
X167790000Y-110670000D02*
X167790000Y-108390000D01*
X151490000Y-123310000D02*
X153300000Y-123310000D01*
X165460000Y-111150000D02*
X167310000Y-111150000D01*
X167310000Y-111150000D02*
X167790000Y-110670000D01*
X167790000Y-108390000D02*
X165890000Y-106490000D01*
%TO.N,D+*%
X139350000Y-92640000D02*
X139350000Y-125260000D01*
X143150000Y-91920000D02*
X144720000Y-90350000D01*
X144720000Y-90350000D02*
X151550000Y-90350000D01*
X140090000Y-91900000D02*
X139350000Y-92640000D01*
X151550000Y-90350000D02*
X152530000Y-91330000D01*
X139350000Y-125260000D02*
X139690000Y-125600000D01*
X143110000Y-91920000D02*
X143150000Y-91920000D01*
X146350000Y-129480000D02*
X152460000Y-129480000D01*
%TO.N,D-*%
X150020000Y-128360000D02*
X149780000Y-128600000D01*
X145830000Y-91000000D02*
X143640000Y-93190000D01*
X139990000Y-118710000D02*
X140630000Y-119350000D01*
X139990000Y-93500000D02*
X139990000Y-118710000D01*
X150040402Y-91300000D02*
X149740402Y-91000000D01*
X150710000Y-91300000D02*
X150040402Y-91300000D01*
X140630000Y-119350000D02*
X140630000Y-119400000D01*
X140280000Y-93210000D02*
X139990000Y-93500000D01*
X147150000Y-128600000D02*
X146360000Y-127810000D01*
X149780000Y-128600000D02*
X147150000Y-128600000D01*
X140630000Y-119400000D02*
X140480000Y-119550000D01*
X149740402Y-91000000D02*
X145830000Y-91000000D01*
X143640000Y-93190000D02*
X143630000Y-93190000D01*
%TO.N,SCL*%
X158580000Y-112020000D02*
X158480000Y-111920000D01*
X158580000Y-110060000D02*
X156670000Y-108150000D01*
X158580000Y-112020000D02*
X158580000Y-110060000D01*
X164580000Y-124020000D02*
X164580000Y-118610000D01*
X162300000Y-101240000D02*
X161130000Y-102410000D01*
X161910000Y-95370000D02*
X162300000Y-95760000D01*
X156670000Y-108150000D02*
X156670000Y-106615000D01*
X164580000Y-118610000D02*
X163580000Y-117610000D01*
X162300000Y-95760000D02*
X162300000Y-101240000D01*
%TO.N,SDA*%
X159980000Y-109740000D02*
X159580000Y-109340000D01*
X162990000Y-103500000D02*
X162990000Y-94090000D01*
X159980000Y-111890000D02*
X159980000Y-109740000D01*
X162620000Y-103870000D02*
X162990000Y-103500000D01*
X162990000Y-94090000D02*
X161670000Y-92770000D01*
X161670000Y-87010000D02*
X162610000Y-86070000D01*
X161670000Y-92770000D02*
X161670000Y-87010000D01*
%TO.N,VBAT_SW_OUT*%
X160380000Y-127220000D02*
X164440000Y-131280000D01*
X141870000Y-138330000D02*
X140680000Y-137140000D01*
X160380000Y-125320000D02*
X160380000Y-127220000D01*
X164440000Y-134130000D02*
X160240000Y-138330000D01*
X164440000Y-131280000D02*
X164440000Y-134130000D01*
X153540000Y-123910000D02*
X158970000Y-123910000D01*
X160240000Y-138330000D02*
X141870000Y-138330000D01*
X153120000Y-124330000D02*
X153540000Y-123910000D01*
X158970000Y-123910000D02*
X160380000Y-125320000D01*
%TO.N,IO2*%
X141770000Y-82570000D02*
X143040000Y-83840000D01*
X143040000Y-83840000D02*
X143040000Y-88527002D01*
X141770000Y-81170000D02*
X141770000Y-82570000D01*
%TO.N,IO1*%
X144000000Y-81820000D02*
X142170000Y-79990000D01*
X143992741Y-89317259D02*
X143992741Y-88504316D01*
X143060000Y-90250000D02*
X143992741Y-89317259D01*
X144000000Y-88497057D02*
X144000000Y-81820000D01*
X143992741Y-88504316D02*
X144000000Y-88497057D01*
X142170000Y-79990000D02*
X142170000Y-79630000D01*
%TO.N,VDD_SPI*%
X152840000Y-100190000D02*
X152840000Y-99760000D01*
X154420000Y-101770000D02*
X152840000Y-100190000D01*
X154670000Y-114130000D02*
X154420000Y-113880000D01*
X154420000Y-113880000D02*
X154420000Y-101770000D01*
%TO.N,BOOT*%
X143180000Y-97130000D02*
X144860000Y-98810000D01*
X140860000Y-79290000D02*
X140860000Y-89380000D01*
X140860000Y-89380000D02*
X141840000Y-90360000D01*
X143180000Y-94630000D02*
X143180000Y-97130000D01*
X141840000Y-90360000D02*
X141840000Y-93290000D01*
X141840000Y-93290000D02*
X143180000Y-94630000D01*
%TD*%
M02*
