%TF.GenerationSoftware,KiCad,Pcbnew,8.0.5-1.fc40*%
%TF.CreationDate,2024-10-05T09:08:47-05:00*%
%TF.ProjectId,PCB_ESP32,5043425f-4553-4503-9332-2e6b69636164,rev?*%
%TF.SameCoordinates,Original*%
%TF.FileFunction,Paste,Top*%
%TF.FilePolarity,Positive*%
%FSLAX46Y46*%
G04 Gerber Fmt 4.6, Leading zero omitted, Abs format (unit mm)*
G04 Created by KiCad (PCBNEW 8.0.5-1.fc40) date 2024-10-05 09:08:47*
%MOMM*%
%LPD*%
G01*
G04 APERTURE LIST*
G04 Aperture macros list*
%AMRoundRect*
0 Rectangle with rounded corners*
0 $1 Rounding radius*
0 $2 $3 $4 $5 $6 $7 $8 $9 X,Y pos of 4 corners*
0 Add a 4 corners polygon primitive as box body*
4,1,4,$2,$3,$4,$5,$6,$7,$8,$9,$2,$3,0*
0 Add four circle primitives for the rounded corners*
1,1,$1+$1,$2,$3*
1,1,$1+$1,$4,$5*
1,1,$1+$1,$6,$7*
1,1,$1+$1,$8,$9*
0 Add four rect primitives between the rounded corners*
20,1,$1+$1,$2,$3,$4,$5,0*
20,1,$1+$1,$4,$5,$6,$7,0*
20,1,$1+$1,$6,$7,$8,$9,0*
20,1,$1+$1,$8,$9,$2,$3,0*%
%AMOutline5P*
0 Free polygon, 5 corners , with rotation*
0 The origin of the aperture is its center*
0 number of corners: always 5*
0 $1 to $10 corner X, Y*
0 $11 Rotation angle, in degrees counterclockwise*
0 create outline with 5 corners*
4,1,5,$1,$2,$3,$4,$5,$6,$7,$8,$9,$10,$1,$2,$11*%
%AMOutline6P*
0 Free polygon, 6 corners , with rotation*
0 The origin of the aperture is its center*
0 number of corners: always 6*
0 $1 to $12 corner X, Y*
0 $13 Rotation angle, in degrees counterclockwise*
0 create outline with 6 corners*
4,1,6,$1,$2,$3,$4,$5,$6,$7,$8,$9,$10,$11,$12,$1,$2,$13*%
%AMOutline7P*
0 Free polygon, 7 corners , with rotation*
0 The origin of the aperture is its center*
0 number of corners: always 7*
0 $1 to $14 corner X, Y*
0 $15 Rotation angle, in degrees counterclockwise*
0 create outline with 7 corners*
4,1,7,$1,$2,$3,$4,$5,$6,$7,$8,$9,$10,$11,$12,$13,$14,$1,$2,$15*%
%AMOutline8P*
0 Free polygon, 8 corners , with rotation*
0 The origin of the aperture is its center*
0 number of corners: always 8*
0 $1 to $16 corner X, Y*
0 $17 Rotation angle, in degrees counterclockwise*
0 create outline with 8 corners*
4,1,8,$1,$2,$3,$4,$5,$6,$7,$8,$9,$10,$11,$12,$13,$14,$15,$16,$1,$2,$17*%
G04 Aperture macros list end*
%ADD10RoundRect,0.200000X-0.275000X0.200000X-0.275000X-0.200000X0.275000X-0.200000X0.275000X0.200000X0*%
%ADD11RoundRect,0.200000X0.275000X-0.200000X0.275000X0.200000X-0.275000X0.200000X-0.275000X-0.200000X0*%
%ADD12RoundRect,0.200000X-0.200000X-0.275000X0.200000X-0.275000X0.200000X0.275000X-0.200000X0.275000X0*%
%ADD13RoundRect,0.225000X0.250000X-0.225000X0.250000X0.225000X-0.250000X0.225000X-0.250000X-0.225000X0*%
%ADD14RoundRect,0.150000X-0.825000X-0.150000X0.825000X-0.150000X0.825000X0.150000X-0.825000X0.150000X0*%
%ADD15RoundRect,0.225000X-0.250000X0.225000X-0.250000X-0.225000X0.250000X-0.225000X0.250000X0.225000X0*%
%ADD16RoundRect,0.150000X0.275000X-0.150000X0.275000X0.150000X-0.275000X0.150000X-0.275000X-0.150000X0*%
%ADD17RoundRect,0.187500X0.362500X-0.187500X0.362500X0.187500X-0.362500X0.187500X-0.362500X-0.187500X0*%
%ADD18RoundRect,0.200000X0.200000X0.275000X-0.200000X0.275000X-0.200000X-0.275000X0.200000X-0.275000X0*%
%ADD19RoundRect,0.225000X0.225000X0.250000X-0.225000X0.250000X-0.225000X-0.250000X0.225000X-0.250000X0*%
%ADD20R,0.700000X0.700000*%
%ADD21R,0.700000X1.000000*%
%ADD22R,1.050000X0.650000*%
%ADD23RoundRect,0.175000X-0.225000X0.175000X-0.225000X-0.175000X0.225000X-0.175000X0.225000X0.175000X0*%
%ADD24RoundRect,0.150000X-0.275000X0.150000X-0.275000X-0.150000X0.275000X-0.150000X0.275000X0.150000X0*%
%ADD25R,1.555000X1.670000*%
%ADD26RoundRect,0.218750X0.218750X0.256250X-0.218750X0.256250X-0.218750X-0.256250X0.218750X-0.256250X0*%
%ADD27R,0.300000X1.150000*%
%ADD28RoundRect,0.150000X-0.587500X-0.150000X0.587500X-0.150000X0.587500X0.150000X-0.587500X0.150000X0*%
%ADD29R,0.800000X0.400000*%
%ADD30R,0.400000X0.800000*%
%ADD31Outline5P,-0.600000X0.204000X-0.204000X0.600000X0.600000X0.600000X0.600000X-0.600000X-0.600000X-0.600000X0.000000*%
%ADD32R,1.200000X1.200000*%
%ADD33R,0.800000X0.800000*%
G04 APERTURE END LIST*
D10*
%TO.C,R10*%
X146740000Y-93200000D03*
X146740000Y-94850000D03*
%TD*%
D11*
%TO.C,R4*%
X159480000Y-133025000D03*
X159480000Y-131375000D03*
%TD*%
D12*
%TO.C,R2*%
X149355000Y-118320000D03*
X151005000Y-118320000D03*
%TD*%
D13*
%TO.C,C9*%
X159800000Y-94805000D03*
X159800000Y-93255000D03*
%TD*%
D14*
%TO.C,U4*%
X149705000Y-106615000D03*
X149705000Y-107885000D03*
X149705000Y-109155000D03*
X149705000Y-110425000D03*
X154655000Y-110425000D03*
X154655000Y-109155000D03*
X154655000Y-107885000D03*
X154655000Y-106615000D03*
%TD*%
D11*
%TO.C,R9*%
X145190000Y-94850000D03*
X145190000Y-93200000D03*
%TD*%
D15*
%TO.C,C7*%
X155780000Y-122045000D03*
X155780000Y-123595000D03*
%TD*%
D16*
%TO.C,J5*%
X162830000Y-124750000D03*
X162830000Y-123550000D03*
X162830000Y-122350000D03*
X162830000Y-121150000D03*
D17*
X166455000Y-125925000D03*
X166455000Y-119975000D03*
%TD*%
D15*
%TO.C,C6*%
X157780000Y-116345000D03*
X157780000Y-117895000D03*
%TD*%
D18*
%TO.C,R13*%
X138077500Y-107840000D03*
X136427500Y-107840000D03*
%TD*%
%TO.C,R6*%
X159830000Y-107940000D03*
X158180000Y-107940000D03*
%TD*%
D11*
%TO.C,R7*%
X149330000Y-94845000D03*
X149330000Y-93195000D03*
%TD*%
D19*
%TO.C,C4*%
X146655000Y-115920000D03*
X145105000Y-115920000D03*
%TD*%
D20*
%TO.C,D1*%
X153385000Y-93610000D03*
X153385000Y-94710000D03*
X155215000Y-94710000D03*
X155215000Y-93610000D03*
%TD*%
D10*
%TO.C,R12*%
X141450000Y-99675000D03*
X141450000Y-101325000D03*
%TD*%
D18*
%TO.C,R5*%
X159830000Y-106240000D03*
X158180000Y-106240000D03*
%TD*%
D12*
%TO.C,R1*%
X144955000Y-124320000D03*
X146605000Y-124320000D03*
%TD*%
D10*
%TO.C,R11*%
X158100000Y-93205000D03*
X158100000Y-94855000D03*
%TD*%
D21*
%TO.C,U5*%
X141650000Y-105500000D03*
X142600000Y-105500000D03*
X143550000Y-105500000D03*
X143550000Y-102900000D03*
X141650000Y-102900000D03*
%TD*%
D19*
%TO.C,C3*%
X146655000Y-117720000D03*
X145105000Y-117720000D03*
%TD*%
%TO.C,C10*%
X143845000Y-110960000D03*
X142295000Y-110960000D03*
%TD*%
D21*
%TO.C,U3*%
X153680000Y-117870000D03*
X154680000Y-117870000D03*
X155680000Y-117870000D03*
X155680000Y-115120000D03*
X153680000Y-115120000D03*
%TD*%
D22*
%TO.C,SW3*%
X154215000Y-101545000D03*
X158365000Y-101545000D03*
X154215000Y-103695000D03*
X158365000Y-103695000D03*
%TD*%
D15*
%TO.C,C1*%
X143180000Y-122745000D03*
X143180000Y-124295000D03*
%TD*%
D10*
%TO.C,R3*%
X162080000Y-131375000D03*
X162080000Y-133025000D03*
%TD*%
D19*
%TO.C,C5*%
X146680000Y-114120000D03*
X145130000Y-114120000D03*
%TD*%
D23*
%TO.C,J7*%
X138405000Y-114170000D03*
X138405000Y-117670000D03*
D24*
X142180000Y-115320000D03*
X142180000Y-116520000D03*
%TD*%
D25*
%TO.C,D2*%
X153580000Y-120520000D03*
X149680000Y-120520000D03*
%TD*%
D10*
%TO.C,R8*%
X150900000Y-93195000D03*
X150900000Y-94845000D03*
%TD*%
D16*
%TO.C,J6*%
X162830000Y-114820000D03*
X162830000Y-113620000D03*
X162830000Y-112420000D03*
X162830000Y-111220000D03*
D17*
X166455000Y-115995000D03*
X166455000Y-110045000D03*
%TD*%
D26*
%TO.C,D3*%
X138040000Y-109840000D03*
X136465000Y-109840000D03*
%TD*%
D27*
%TO.C,J2*%
X149430000Y-131830000D03*
X150230000Y-131830000D03*
X151530000Y-131830000D03*
X152530000Y-131830000D03*
X153030000Y-131830000D03*
X154030000Y-131830000D03*
X155330000Y-131830000D03*
X156130000Y-131830000D03*
X155830000Y-131830000D03*
X155030000Y-131830000D03*
X154530000Y-131830000D03*
X153530000Y-131830000D03*
X152030000Y-131830000D03*
X151030000Y-131830000D03*
X150530000Y-131830000D03*
X149730000Y-131830000D03*
%TD*%
D28*
%TO.C,Q1*%
X149742500Y-122870000D03*
X149742500Y-124770000D03*
X151617500Y-123820000D03*
%TD*%
D22*
%TO.C,SW2*%
X146140000Y-101545000D03*
X150290000Y-101545000D03*
X146140000Y-103695000D03*
X150290000Y-103695000D03*
%TD*%
D29*
%TO.C,U1*%
X145450000Y-76035000D03*
X145450000Y-76885000D03*
X145450000Y-77735000D03*
X145450000Y-78585000D03*
X145450000Y-79435000D03*
X145450000Y-80285000D03*
X145450000Y-81135000D03*
X145450000Y-81985000D03*
X145450000Y-82835000D03*
X145450000Y-83685000D03*
X145450000Y-84535000D03*
X145450000Y-85385000D03*
X145450000Y-86235000D03*
X145450000Y-87085000D03*
X145450000Y-87935000D03*
D30*
X146500000Y-88985000D03*
X147350000Y-88985000D03*
X148200000Y-88985000D03*
X149050000Y-88985000D03*
X149900000Y-88985000D03*
X150750000Y-88985000D03*
X151600000Y-88985000D03*
X152450000Y-88985000D03*
X153300000Y-88985000D03*
X154150000Y-88985000D03*
X155000000Y-88985000D03*
X155850000Y-88985000D03*
X156700000Y-88985000D03*
X157550000Y-88985000D03*
X158400000Y-88985000D03*
D29*
X159450000Y-87935000D03*
X159450000Y-87085000D03*
X159450000Y-86235000D03*
X159450000Y-85385000D03*
X159450000Y-84535000D03*
X159450000Y-83685000D03*
X159450000Y-82835000D03*
X159450000Y-81985000D03*
X159450000Y-81135000D03*
X159450000Y-80285000D03*
X159450000Y-79435000D03*
X159450000Y-78585000D03*
X159450000Y-77735000D03*
X159450000Y-76885000D03*
X159450000Y-76035000D03*
D30*
X155000000Y-74985000D03*
X154150000Y-74985000D03*
X153300000Y-74985000D03*
X152450000Y-74985000D03*
X151600000Y-74985000D03*
X150750000Y-74985000D03*
X149900000Y-74985000D03*
X149050000Y-74985000D03*
X148200000Y-74985000D03*
X147350000Y-74985000D03*
X146500000Y-74985000D03*
D31*
X150800000Y-80335000D03*
D32*
X150800000Y-81985000D03*
X150800000Y-83635000D03*
X152450000Y-80335000D03*
X152450000Y-81985000D03*
X152450000Y-83635000D03*
X154100000Y-80335000D03*
X154100000Y-81985000D03*
X154100000Y-83635000D03*
D33*
X145450000Y-74985000D03*
X145450000Y-88985000D03*
D30*
X155850000Y-74985000D03*
X156700000Y-74985000D03*
X157550000Y-74985000D03*
X158400000Y-74985000D03*
D33*
X159450000Y-74985000D03*
X159450000Y-88985000D03*
%TD*%
D21*
%TO.C,U2*%
X144980000Y-122570000D03*
X145980000Y-122570000D03*
X146980000Y-122570000D03*
X146980000Y-119820000D03*
X144980000Y-119820000D03*
%TD*%
M02*
