M48
; DRILL file {KiCad 8.0.5-1.fc40} date 2024-10-05T09:08:52-0500
; FORMAT={-:-/ absolute / inch / decimal}
; #@! TF.CreationDate,2024-10-05T09:08:52-05:00
; #@! TF.GenerationSoftware,Kicad,Pcbnew,8.0.5-1.fc40
; #@! TF.FileFunction,Plated,1,2,PTH
FMAT,2
INCH
; #@! TA.AperFunction,Plated,PTH,ViaDrill
T1C0.0157
; #@! TA.AperFunction,Plated,PTH,ComponentDrill
T2C0.0236
; #@! TA.AperFunction,Plated,PTH,ComponentDrill
T3C0.0394
%
G90
G05
T1
X5.4154Y-4.765
X5.4996Y-4.9449
X5.5154Y-3.6181
X5.5228Y-3.6697
X5.5366Y-4.6988
X5.5457Y-3.1217
X5.548Y-3.7469
X5.5488Y-3.0591
X5.5535Y-3.872
X5.5626Y-4.3157
X5.5756Y-4.7654
X5.576Y-4.2276
X5.5815Y-3.1957
X5.5972Y-3.135
X5.5984Y-3.785
X5.6224Y-4.4268
X5.6315Y-3.4853
X5.6323Y-3.5531
X5.6343Y-3.6189
X5.6346Y-3.9453
X5.6516Y-3.9972
X5.6547Y-3.6689
X5.6646Y-4.6829
X5.674Y-3.7846
X5.6923Y-4.9541
X5.6992Y-4.2862
X5.7031Y-3.8902
X5.7059Y-4.428
X5.7528Y-3.9165
X5.7618Y-5.0976
X5.7622Y-5.0319
X5.7917Y-4.1335
X5.7921Y-3.8382
X5.8142Y-4.4004
X5.8268Y-5.0272
X5.8339Y-4.7764
X5.8398Y-4.5638
X5.8634Y-4.463
X5.878Y-3.6181
X5.8791Y-3.7965
X5.9063Y-5.0535
X5.9335Y-3.5945
X5.9409Y-3.8035
X5.9783Y-3.852
X6.0024Y-5.0976
X6.0051Y-3.5957
X6.0173Y-3.9276
X6.0207Y-4.4045
X6.0283Y-4.8949
X6.0374Y-4.4713
X6.0811Y-3.7878
X6.0894Y-4.4933
X6.0953Y-3.5638
X6.1201Y-4.398
X6.1575Y-3.6961
X6.1618Y-3.8693
X6.1671Y-4.3089
X6.1681Y-4.1974
X6.1685Y-3.6476
X6.1827Y-4.5091
X6.1843Y-4.4063
X6.2362Y-3.576
X6.2413Y-3.9323
X6.2433Y-4.4102
X6.2465Y-3.8311
X6.2827Y-4.3047
X6.2984Y-4.4051
X6.3059Y-3.8567
X6.3118Y-4.6472
X6.326Y-5.0937
X6.3437Y-4.0319
X6.3472Y-3.698
X6.352Y-3.0701
X6.3528Y-3.9677
X6.3567Y-3.3102
X6.3744Y-3.7547
X6.3819Y-3.0197
X6.3941Y-4.2654
X6.4016Y-3.6079
X6.402Y-3.3886
X6.4024Y-4.0894
X6.413Y-3.1224
X6.4402Y-4.6303
X6.4748Y-3.6016
X6.4795Y-4.4614
X6.4795Y-4.8827
X6.4906Y-3.1976
X6.5681Y-3.9835
X6.6248Y-4.039
T3
X5.4051Y-3.0061
X5.4051Y-3.1061
X5.4051Y-3.2061
X5.4051Y-3.3061
X5.4051Y-3.4061
X5.4051Y-3.5061
X5.4051Y-3.6061
X5.4051Y-3.7061
X5.4051Y-3.8061
X5.4051Y-3.9061
X6.6154Y-2.9963
X6.6154Y-3.0963
X6.6154Y-3.1963
X6.6154Y-3.2963
X6.6154Y-3.3963
X6.6154Y-3.4963
X6.6154Y-3.5963
X6.6154Y-3.6963
X6.6154Y-3.7963
X6.6154Y-3.8963
T2
G00X5.8449Y-5.1907
M15
G01X5.8449Y-5.2341
M16
G05
G00X5.8449Y-5.3652
M15
G01X5.8449Y-5.3888
M16
G05
G00X6.185Y-5.1907
M15
G01X6.185Y-5.2341
M16
G05
G00X6.185Y-5.3652
M15
G01X6.185Y-5.3888
M16
G05
M30
