%TF.GenerationSoftware,KiCad,Pcbnew,8.0.5-1.fc40*%
%TF.CreationDate,2024-10-05T09:08:48-05:00*%
%TF.ProjectId,PCB_ESP32,5043425f-4553-4503-9332-2e6b69636164,rev?*%
%TF.SameCoordinates,Original*%
%TF.FileFunction,AssemblyDrawing,Bot*%
%FSLAX46Y46*%
G04 Gerber Fmt 4.6, Leading zero omitted, Abs format (unit mm)*
G04 Created by KiCad (PCBNEW 8.0.5-1.fc40) date 2024-10-05 09:08:48*
%MOMM*%
%LPD*%
G01*
G04 APERTURE LIST*
%ADD10C,0.150000*%
%ADD11C,0.060000*%
%ADD12C,0.100000*%
G04 APERTURE END LIST*
D10*
X167484819Y-87201666D02*
X168199104Y-87201666D01*
X168199104Y-87201666D02*
X168341961Y-87154047D01*
X168341961Y-87154047D02*
X168437200Y-87058809D01*
X168437200Y-87058809D02*
X168484819Y-86915952D01*
X168484819Y-86915952D02*
X168484819Y-86820714D01*
X167484819Y-87582619D02*
X167484819Y-88201666D01*
X167484819Y-88201666D02*
X167865771Y-87868333D01*
X167865771Y-87868333D02*
X167865771Y-88011190D01*
X167865771Y-88011190D02*
X167913390Y-88106428D01*
X167913390Y-88106428D02*
X167961009Y-88154047D01*
X167961009Y-88154047D02*
X168056247Y-88201666D01*
X168056247Y-88201666D02*
X168294342Y-88201666D01*
X168294342Y-88201666D02*
X168389580Y-88154047D01*
X168389580Y-88154047D02*
X168437200Y-88106428D01*
X168437200Y-88106428D02*
X168484819Y-88011190D01*
X168484819Y-88011190D02*
X168484819Y-87725476D01*
X168484819Y-87725476D02*
X168437200Y-87630238D01*
X168437200Y-87630238D02*
X168389580Y-87582619D01*
D11*
X148923832Y-123553333D02*
X148942880Y-123534285D01*
X148942880Y-123534285D02*
X148961927Y-123477143D01*
X148961927Y-123477143D02*
X148961927Y-123439047D01*
X148961927Y-123439047D02*
X148942880Y-123381904D01*
X148942880Y-123381904D02*
X148904784Y-123343809D01*
X148904784Y-123343809D02*
X148866689Y-123324762D01*
X148866689Y-123324762D02*
X148790499Y-123305714D01*
X148790499Y-123305714D02*
X148733356Y-123305714D01*
X148733356Y-123305714D02*
X148657165Y-123324762D01*
X148657165Y-123324762D02*
X148619070Y-123343809D01*
X148619070Y-123343809D02*
X148580975Y-123381904D01*
X148580975Y-123381904D02*
X148561927Y-123439047D01*
X148561927Y-123439047D02*
X148561927Y-123477143D01*
X148561927Y-123477143D02*
X148580975Y-123534285D01*
X148580975Y-123534285D02*
X148600022Y-123553333D01*
X148733356Y-123781904D02*
X148714308Y-123743809D01*
X148714308Y-123743809D02*
X148695260Y-123724762D01*
X148695260Y-123724762D02*
X148657165Y-123705714D01*
X148657165Y-123705714D02*
X148638118Y-123705714D01*
X148638118Y-123705714D02*
X148600022Y-123724762D01*
X148600022Y-123724762D02*
X148580975Y-123743809D01*
X148580975Y-123743809D02*
X148561927Y-123781904D01*
X148561927Y-123781904D02*
X148561927Y-123858095D01*
X148561927Y-123858095D02*
X148580975Y-123896190D01*
X148580975Y-123896190D02*
X148600022Y-123915238D01*
X148600022Y-123915238D02*
X148638118Y-123934285D01*
X148638118Y-123934285D02*
X148657165Y-123934285D01*
X148657165Y-123934285D02*
X148695260Y-123915238D01*
X148695260Y-123915238D02*
X148714308Y-123896190D01*
X148714308Y-123896190D02*
X148733356Y-123858095D01*
X148733356Y-123858095D02*
X148733356Y-123781904D01*
X148733356Y-123781904D02*
X148752403Y-123743809D01*
X148752403Y-123743809D02*
X148771451Y-123724762D01*
X148771451Y-123724762D02*
X148809546Y-123705714D01*
X148809546Y-123705714D02*
X148885737Y-123705714D01*
X148885737Y-123705714D02*
X148923832Y-123724762D01*
X148923832Y-123724762D02*
X148942880Y-123743809D01*
X148942880Y-123743809D02*
X148961927Y-123781904D01*
X148961927Y-123781904D02*
X148961927Y-123858095D01*
X148961927Y-123858095D02*
X148942880Y-123896190D01*
X148942880Y-123896190D02*
X148923832Y-123915238D01*
X148923832Y-123915238D02*
X148885737Y-123934285D01*
X148885737Y-123934285D02*
X148809546Y-123934285D01*
X148809546Y-123934285D02*
X148771451Y-123915238D01*
X148771451Y-123915238D02*
X148752403Y-123896190D01*
X148752403Y-123896190D02*
X148733356Y-123858095D01*
D10*
X138337200Y-133306667D02*
X138384819Y-133449524D01*
X138384819Y-133449524D02*
X138384819Y-133687619D01*
X138384819Y-133687619D02*
X138337200Y-133782857D01*
X138337200Y-133782857D02*
X138289580Y-133830476D01*
X138289580Y-133830476D02*
X138194342Y-133878095D01*
X138194342Y-133878095D02*
X138099104Y-133878095D01*
X138099104Y-133878095D02*
X138003866Y-133830476D01*
X138003866Y-133830476D02*
X137956247Y-133782857D01*
X137956247Y-133782857D02*
X137908628Y-133687619D01*
X137908628Y-133687619D02*
X137861009Y-133497143D01*
X137861009Y-133497143D02*
X137813390Y-133401905D01*
X137813390Y-133401905D02*
X137765771Y-133354286D01*
X137765771Y-133354286D02*
X137670533Y-133306667D01*
X137670533Y-133306667D02*
X137575295Y-133306667D01*
X137575295Y-133306667D02*
X137480057Y-133354286D01*
X137480057Y-133354286D02*
X137432438Y-133401905D01*
X137432438Y-133401905D02*
X137384819Y-133497143D01*
X137384819Y-133497143D02*
X137384819Y-133735238D01*
X137384819Y-133735238D02*
X137432438Y-133878095D01*
X137384819Y-134211429D02*
X138384819Y-134449524D01*
X138384819Y-134449524D02*
X137670533Y-134640000D01*
X137670533Y-134640000D02*
X138384819Y-134830476D01*
X138384819Y-134830476D02*
X137384819Y-135068572D01*
X138384819Y-135973333D02*
X138384819Y-135401905D01*
X138384819Y-135687619D02*
X137384819Y-135687619D01*
X137384819Y-135687619D02*
X137527676Y-135592381D01*
X137527676Y-135592381D02*
X137622914Y-135497143D01*
X137622914Y-135497143D02*
X137670533Y-135401905D01*
D12*
X159937419Y-119686666D02*
X160651704Y-119686666D01*
X160651704Y-119686666D02*
X160794561Y-119639047D01*
X160794561Y-119639047D02*
X160889800Y-119543809D01*
X160889800Y-119543809D02*
X160937419Y-119400952D01*
X160937419Y-119400952D02*
X160937419Y-119305714D01*
X160937419Y-120686666D02*
X160937419Y-120115238D01*
X160937419Y-120400952D02*
X159937419Y-120400952D01*
X159937419Y-120400952D02*
X160080276Y-120305714D01*
X160080276Y-120305714D02*
X160175514Y-120210476D01*
X160175514Y-120210476D02*
X160223133Y-120115238D01*
D10*
X163881009Y-85845236D02*
X163928628Y-85988093D01*
X163928628Y-85988093D02*
X163976247Y-86035712D01*
X163976247Y-86035712D02*
X164071485Y-86083331D01*
X164071485Y-86083331D02*
X164214342Y-86083331D01*
X164214342Y-86083331D02*
X164309580Y-86035712D01*
X164309580Y-86035712D02*
X164357200Y-85988093D01*
X164357200Y-85988093D02*
X164404819Y-85892855D01*
X164404819Y-85892855D02*
X164404819Y-85511903D01*
X164404819Y-85511903D02*
X163404819Y-85511903D01*
X163404819Y-85511903D02*
X163404819Y-85845236D01*
X163404819Y-85845236D02*
X163452438Y-85940474D01*
X163452438Y-85940474D02*
X163500057Y-85988093D01*
X163500057Y-85988093D02*
X163595295Y-86035712D01*
X163595295Y-86035712D02*
X163690533Y-86035712D01*
X163690533Y-86035712D02*
X163785771Y-85988093D01*
X163785771Y-85988093D02*
X163833390Y-85940474D01*
X163833390Y-85940474D02*
X163881009Y-85845236D01*
X163881009Y-85845236D02*
X163881009Y-85511903D01*
X164404819Y-86940474D02*
X163881009Y-86940474D01*
X163881009Y-86940474D02*
X163785771Y-86892855D01*
X163785771Y-86892855D02*
X163738152Y-86797617D01*
X163738152Y-86797617D02*
X163738152Y-86607141D01*
X163738152Y-86607141D02*
X163785771Y-86511903D01*
X164357200Y-86940474D02*
X164404819Y-86845236D01*
X164404819Y-86845236D02*
X164404819Y-86607141D01*
X164404819Y-86607141D02*
X164357200Y-86511903D01*
X164357200Y-86511903D02*
X164261961Y-86464284D01*
X164261961Y-86464284D02*
X164166723Y-86464284D01*
X164166723Y-86464284D02*
X164071485Y-86511903D01*
X164071485Y-86511903D02*
X164023866Y-86607141D01*
X164023866Y-86607141D02*
X164023866Y-86845236D01*
X164023866Y-86845236D02*
X163976247Y-86940474D01*
X163738152Y-87273808D02*
X163738152Y-87654760D01*
X163404819Y-87416665D02*
X164261961Y-87416665D01*
X164261961Y-87416665D02*
X164357200Y-87464284D01*
X164357200Y-87464284D02*
X164404819Y-87559522D01*
X164404819Y-87559522D02*
X164404819Y-87654760D01*
X163738152Y-87845237D02*
X163738152Y-88226189D01*
X163404819Y-87988094D02*
X164261961Y-87988094D01*
X164261961Y-87988094D02*
X164357200Y-88035713D01*
X164357200Y-88035713D02*
X164404819Y-88130951D01*
X164404819Y-88130951D02*
X164404819Y-88226189D01*
X164357200Y-88940475D02*
X164404819Y-88845237D01*
X164404819Y-88845237D02*
X164404819Y-88654761D01*
X164404819Y-88654761D02*
X164357200Y-88559523D01*
X164357200Y-88559523D02*
X164261961Y-88511904D01*
X164261961Y-88511904D02*
X163881009Y-88511904D01*
X163881009Y-88511904D02*
X163785771Y-88559523D01*
X163785771Y-88559523D02*
X163738152Y-88654761D01*
X163738152Y-88654761D02*
X163738152Y-88845237D01*
X163738152Y-88845237D02*
X163785771Y-88940475D01*
X163785771Y-88940475D02*
X163881009Y-88988094D01*
X163881009Y-88988094D02*
X163976247Y-88988094D01*
X163976247Y-88988094D02*
X164071485Y-88511904D01*
X164404819Y-89416666D02*
X163738152Y-89416666D01*
X163928628Y-89416666D02*
X163833390Y-89464285D01*
X163833390Y-89464285D02*
X163785771Y-89511904D01*
X163785771Y-89511904D02*
X163738152Y-89607142D01*
X163738152Y-89607142D02*
X163738152Y-89702380D01*
X163738152Y-89940476D02*
X164404819Y-90178571D01*
X163738152Y-90416666D02*
X164404819Y-90178571D01*
X164404819Y-90178571D02*
X164642914Y-90083333D01*
X164642914Y-90083333D02*
X164690533Y-90035714D01*
X164690533Y-90035714D02*
X164738152Y-89940476D01*
X164500057Y-90559524D02*
X164500057Y-91321428D01*
X164309580Y-92130952D02*
X164357200Y-92083333D01*
X164357200Y-92083333D02*
X164404819Y-91940476D01*
X164404819Y-91940476D02*
X164404819Y-91845238D01*
X164404819Y-91845238D02*
X164357200Y-91702381D01*
X164357200Y-91702381D02*
X164261961Y-91607143D01*
X164261961Y-91607143D02*
X164166723Y-91559524D01*
X164166723Y-91559524D02*
X163976247Y-91511905D01*
X163976247Y-91511905D02*
X163833390Y-91511905D01*
X163833390Y-91511905D02*
X163642914Y-91559524D01*
X163642914Y-91559524D02*
X163547676Y-91607143D01*
X163547676Y-91607143D02*
X163452438Y-91702381D01*
X163452438Y-91702381D02*
X163404819Y-91845238D01*
X163404819Y-91845238D02*
X163404819Y-91940476D01*
X163404819Y-91940476D02*
X163452438Y-92083333D01*
X163452438Y-92083333D02*
X163500057Y-92130952D01*
X164357200Y-92940476D02*
X164404819Y-92845238D01*
X164404819Y-92845238D02*
X164404819Y-92654762D01*
X164404819Y-92654762D02*
X164357200Y-92559524D01*
X164357200Y-92559524D02*
X164261961Y-92511905D01*
X164261961Y-92511905D02*
X163881009Y-92511905D01*
X163881009Y-92511905D02*
X163785771Y-92559524D01*
X163785771Y-92559524D02*
X163738152Y-92654762D01*
X163738152Y-92654762D02*
X163738152Y-92845238D01*
X163738152Y-92845238D02*
X163785771Y-92940476D01*
X163785771Y-92940476D02*
X163881009Y-92988095D01*
X163881009Y-92988095D02*
X163976247Y-92988095D01*
X163976247Y-92988095D02*
X164071485Y-92511905D01*
X164404819Y-93559524D02*
X164357200Y-93464286D01*
X164357200Y-93464286D02*
X164261961Y-93416667D01*
X164261961Y-93416667D02*
X163404819Y-93416667D01*
X164404819Y-94083334D02*
X164357200Y-93988096D01*
X164357200Y-93988096D02*
X164261961Y-93940477D01*
X164261961Y-93940477D02*
X163404819Y-93940477D01*
X152131009Y-88964285D02*
X152178628Y-89107142D01*
X152178628Y-89107142D02*
X152226247Y-89154761D01*
X152226247Y-89154761D02*
X152321485Y-89202380D01*
X152321485Y-89202380D02*
X152464342Y-89202380D01*
X152464342Y-89202380D02*
X152559580Y-89154761D01*
X152559580Y-89154761D02*
X152607200Y-89107142D01*
X152607200Y-89107142D02*
X152654819Y-89011904D01*
X152654819Y-89011904D02*
X152654819Y-88630952D01*
X152654819Y-88630952D02*
X151654819Y-88630952D01*
X151654819Y-88630952D02*
X151654819Y-88964285D01*
X151654819Y-88964285D02*
X151702438Y-89059523D01*
X151702438Y-89059523D02*
X151750057Y-89107142D01*
X151750057Y-89107142D02*
X151845295Y-89154761D01*
X151845295Y-89154761D02*
X151940533Y-89154761D01*
X151940533Y-89154761D02*
X152035771Y-89107142D01*
X152035771Y-89107142D02*
X152083390Y-89059523D01*
X152083390Y-89059523D02*
X152131009Y-88964285D01*
X152131009Y-88964285D02*
X152131009Y-88630952D01*
X151654819Y-89488095D02*
X151654819Y-90059523D01*
X152654819Y-89773809D02*
X151654819Y-89773809D01*
X152654819Y-90916666D02*
X152654819Y-90345238D01*
X152654819Y-90630952D02*
X151654819Y-90630952D01*
X151654819Y-90630952D02*
X151797676Y-90535714D01*
X151797676Y-90535714D02*
X151892914Y-90440476D01*
X151892914Y-90440476D02*
X151940533Y-90345238D01*
X136744819Y-87451666D02*
X137459104Y-87451666D01*
X137459104Y-87451666D02*
X137601961Y-87404047D01*
X137601961Y-87404047D02*
X137697200Y-87308809D01*
X137697200Y-87308809D02*
X137744819Y-87165952D01*
X137744819Y-87165952D02*
X137744819Y-87070714D01*
X137078152Y-88356428D02*
X137744819Y-88356428D01*
X136697200Y-88118333D02*
X137411485Y-87880238D01*
X137411485Y-87880238D02*
X137411485Y-88499285D01*
D12*
%TO.C,J3*%
X166760000Y-74835000D02*
X168665000Y-74835000D01*
X166760000Y-100235000D02*
X166760000Y-74835000D01*
X168665000Y-74835000D02*
X169300000Y-75470000D01*
X169300000Y-75470000D02*
X169300000Y-100235000D01*
X169300000Y-100235000D02*
X166760000Y-100235000D01*
%TO.C,C8*%
X148380000Y-122820000D02*
X149180000Y-122820000D01*
X148380000Y-124420000D02*
X148380000Y-122820000D01*
X149180000Y-122820000D02*
X149180000Y-124420000D01*
X149180000Y-124420000D02*
X148380000Y-124420000D01*
%TO.C,SW1*%
X134130000Y-135140000D02*
X136130000Y-135140000D01*
X134130000Y-136640000D02*
X134130000Y-135140000D01*
X135830000Y-131840000D02*
X135830000Y-132440000D01*
X135830000Y-132440000D02*
X136130000Y-132440000D01*
X135830000Y-134340000D02*
X136130000Y-134340000D01*
X135830000Y-134940000D02*
X135830000Y-134340000D01*
X135830000Y-136840000D02*
X136130000Y-136840000D01*
X135830000Y-137440000D02*
X135830000Y-136840000D01*
X136130000Y-130140000D02*
X139730000Y-130140000D01*
X136130000Y-131840000D02*
X135830000Y-131840000D01*
X136130000Y-134940000D02*
X135830000Y-134940000D01*
X136130000Y-136640000D02*
X134130000Y-136640000D01*
X136130000Y-137440000D02*
X135830000Y-137440000D01*
X136130000Y-139140000D02*
X136130000Y-130140000D01*
X136130000Y-139140000D02*
X139730000Y-139140000D01*
X139730000Y-130140000D02*
X139730000Y-139140000D01*
%TO.C,J1*%
X151080000Y-112770000D02*
X167130000Y-112770000D01*
X151080000Y-126620000D02*
X151080000Y-112770000D01*
X151080000Y-126620000D02*
X166630000Y-126620000D01*
X166180000Y-125620000D02*
X166180000Y-117470000D01*
X166180000Y-125620000D02*
X172130000Y-125620000D01*
X166630000Y-117470000D02*
X166180000Y-117470000D01*
X166630000Y-125620000D02*
X166630000Y-126620000D01*
X167130000Y-116970000D02*
X166630000Y-117470000D01*
X167130000Y-116970000D02*
X167130000Y-112770000D01*
X168630000Y-125120000D02*
X168630000Y-115120000D01*
X172130000Y-114620000D02*
X167130000Y-114620000D01*
X172630000Y-125120000D02*
X172630000Y-115120000D01*
X168130000Y-114620000D02*
G75*
G02*
X168630000Y-115120000I-1J-500001D01*
G01*
X168630000Y-125120000D02*
G75*
G02*
X168130000Y-125620000I-500000J0D01*
G01*
X172130000Y-114620000D02*
G75*
G02*
X172630000Y-115120000I-1J-500001D01*
G01*
X172630000Y-125120000D02*
G75*
G02*
X172130000Y-125620000I-500000J0D01*
G01*
%TO.C,BT1*%
X144200000Y-99150000D02*
X144200000Y-78750000D01*
X145800000Y-100750000D02*
X144200000Y-99150000D01*
X148700000Y-75550000D02*
X148700000Y-78750000D01*
X148700000Y-78750000D02*
X144200000Y-78750000D01*
X148700000Y-100750000D02*
X145800000Y-100750000D01*
X148700000Y-103950000D02*
X148700000Y-100750000D01*
X155700000Y-75550000D02*
X148700000Y-75550000D01*
X155700000Y-78750000D02*
X155700000Y-75550000D01*
X155700000Y-78750000D02*
X160200000Y-78750000D01*
X155700000Y-100750000D02*
X155700000Y-103950000D01*
X155700000Y-100750000D02*
X160200000Y-100750000D01*
X155700000Y-103950000D02*
X148700000Y-103950000D01*
X160200000Y-100750000D02*
X160200000Y-78750000D01*
%TO.C,J4*%
X136020000Y-75085000D02*
X138560000Y-75085000D01*
X136020000Y-99850000D02*
X136020000Y-75085000D01*
X136655000Y-100485000D02*
X136020000Y-99850000D01*
X138560000Y-75085000D02*
X138560000Y-100485000D01*
X138560000Y-100485000D02*
X136655000Y-100485000D01*
%TD*%
M02*
